<svg width="129" height="46" viewBox="0 0 129 46" fill="none" xmlns="http://www.w3.org/2000/svg">
<path d="M98.5977 37.1133V34.6493H111.478V37.1133H98.5977ZM111.128 30.3793V32.6893H99.0877V27.3833H110.932V29.5813H102.21V30.3793H111.128ZM99.0877 26.7953V24.5273H110.988V26.7953H99.0877Z" fill="#909090"/>
<path d="M84.877 32.2554V24.4574H87.313V26.0254H88.587V24.4574H90.925V27.1874H91.975V24.3174H94.425V33.9634H91.975V29.5674H90.925V32.2554H84.877ZM97.687 35.0274V37.3234H85.465V32.9554H88.587V35.0274H97.687ZM94.971 33.9634V24.3174H97.477V33.9634H94.971ZM87.313 28.3214V29.9594H88.587V28.3214H87.313Z" fill="#909090"/>
<path d="M70.877 33.6554V27.9854C70.877 25.9274 72.655 24.5274 74.825 24.5274C77.009 24.5274 78.801 25.9274 78.801 27.9854V33.6554C78.801 35.7134 77.009 37.1134 74.825 37.1134C72.655 37.1134 70.877 35.7134 70.877 33.6554ZM80.173 37.3234V24.3174H83.323V37.3234H80.173ZM73.859 27.8454V33.7954C73.859 34.2854 74.265 34.7474 74.867 34.7474C75.469 34.7474 75.889 34.2854 75.889 33.7954V27.8454C75.889 27.3834 75.469 26.8794 74.867 26.8794C74.265 26.8794 73.859 27.3834 73.859 27.8454Z" fill="#909090"/>
<path d="M52.6797 28.4754V27.4534C52.6797 25.3954 54.3597 24.3174 56.4177 24.3174C58.1817 24.3174 59.6797 25.1154 60.0577 26.6554H62.0597V24.3174H65.1397V31.9754H62.0597V29.0494H60.0997C59.8057 30.7294 58.2657 31.5834 56.4177 31.5834C54.3597 31.5834 52.6797 30.5334 52.6797 28.4754ZM53.1277 34.6354V32.3254H65.1397V37.3934H61.9197V34.6354H53.1277ZM55.4937 27.2294V28.6854C55.4937 29.2314 55.8997 29.5674 56.4457 29.5674C56.9917 29.5674 57.4117 29.2314 57.4117 28.6854V27.2294C57.4117 26.6834 56.9917 26.3334 56.4457 26.3334C55.8997 26.3334 55.4937 26.6834 55.4937 27.2294Z" fill="#909090"/>
<path d="M44.0605 34.4117V27.2297C44.0605 25.2417 45.6985 24.1777 47.6725 24.1777C49.6465 24.1777 51.2845 25.2417 51.2845 27.2297V34.4117C51.2845 36.3997 49.6465 37.4637 47.6725 37.4637C45.6985 37.4637 44.0605 36.3997 44.0605 34.4117ZM46.8605 27.2297V34.4117C46.8605 34.8597 47.2245 35.2237 47.6725 35.2237C48.1205 35.2237 48.4845 34.8597 48.4845 34.4117V27.2297C48.4845 26.7817 48.1205 26.4177 47.6725 26.4177C47.2245 26.4177 46.8605 26.7817 46.8605 27.2297Z" fill="#909090"/>
<path d="M38.3381 31.4437V29.2037L39.2621 29.1337C39.6821 29.0917 40.1441 28.7697 40.1441 28.3217V27.0897C40.1441 26.6417 39.7801 26.2777 39.3321 26.2777C38.8841 26.2777 38.5201 26.6417 38.5201 27.0897V28.1117H35.7201V27.2297C35.7201 25.2417 37.3581 24.1777 39.3321 24.1777C41.3061 24.1777 42.9441 25.2417 42.9441 27.2297V28.1817C42.9441 29.2457 42.5241 29.9037 41.8521 30.3097C42.5941 30.7157 43.0841 31.3877 43.0841 32.4657V34.4117C43.0841 36.3997 41.3061 37.4637 39.3321 37.4637C37.3581 37.4637 35.5801 36.3997 35.5801 34.4117V32.8857H38.5201V34.4117C38.5201 34.8597 38.8841 35.2237 39.3321 35.2237C39.7801 35.2237 40.1441 34.8597 40.1441 34.4117V32.3257C40.1441 31.8777 39.6401 31.5137 39.1921 31.5137L38.3381 31.4437Z" fill="#909090"/>
<path d="M17.8034 35.1681C17.8034 33.9361 18.8534 32.9281 20.1554 32.9281H27.7574C29.0454 32.9281 30.1234 33.9361 30.1234 35.1681C30.1234 36.4001 29.0454 37.3941 27.7574 37.3941H20.1554C18.8534 37.3941 17.8034 36.4001 17.8034 35.1681ZM29.9134 26.8801H25.5874C25.8814 27.5101 27.1414 28.0421 30.0534 28.0001V29.9041C26.8754 29.9041 24.9714 29.4001 23.9634 28.3781C22.9554 29.4001 21.0514 29.9041 17.8734 29.9041V28.0001C20.7714 28.0421 22.0314 27.5101 22.3254 26.8801H18.0134V24.9481H22.3954V24.0381H25.5594V24.9481H29.9134V26.8801ZM17.5234 32.5081V30.5621H22.4794V29.3861H25.4334V30.5621H30.4034V32.5081H17.5234ZM20.6174 35.1261C20.6174 35.2941 20.7574 35.4621 20.9394 35.4621H26.9174C27.0994 35.4621 27.2394 35.2941 27.2394 35.1261C27.2394 34.9581 27.0994 34.7901 26.9174 34.7901H20.9394C20.7574 34.7901 20.6174 34.9581 20.6174 35.1261Z" fill="#909090"/>
<path d="M79.2012 20.9034V17.5994C80.6992 16.5914 81.9732 15.2054 81.9732 11.1034V8.59738H85.0672V11.1034C85.0672 15.2054 86.3412 16.5914 87.8392 17.5994V20.9034C86.0472 20.0074 84.5212 18.8174 83.5132 16.9274C82.5052 18.8174 80.9932 20.0074 79.2012 20.9034ZM88.6372 21.3234V8.31738H91.7872V21.3234H88.6372Z" fill="#909090"/>
<path d="M72.2992 21.3234V8.31738H74.7492V13.0914H75.4352V8.31738H77.9412V21.3234H75.4352V15.6254H74.7492V21.3234H72.2992ZM65.4812 15.4154V13.0214H68.9532C69.0232 12.4194 69.0512 11.8594 69.0512 11.2574H65.2712V8.73738H71.7252V10.5574C71.7252 17.6554 69.0932 20.1054 65.2012 21.0434V18.4394C66.8672 17.9494 67.8332 16.8294 68.3932 15.4154H65.4812Z" fill="#909090"/>
<path d="M51.4105 13.3997V11.2157C54.3925 11.2157 55.9325 9.87174 55.9325 8.52773V8.17773H59.0825V8.52773C59.0825 9.87174 60.6225 11.2577 63.5905 11.2577V13.3997C60.4405 13.3997 58.5645 12.4897 57.4865 11.2577C56.4085 12.4897 54.4905 13.3997 51.4105 13.3997ZM63.6605 19.1117V21.3237H51.5505V17.0677H54.5885V19.1117H63.6605ZM51.0605 16.4097V14.0997H63.9405V16.4097H51.0605Z" fill="#909090"/>
<path d="M37.8018 18.7614V16.5214H49.9398V21.4634H46.7198V18.7614H37.8018ZM37.3398 15.9614V8.45738H40.1538V13.2734L43.9478 12.8674V15.2614L37.3398 15.9614ZM41.9318 12.1674V9.98338H44.4378V8.31738H46.8878V16.1714H44.4378V12.1674H41.9318ZM47.4338 16.1714V8.31738H49.9398V16.1714H47.4338Z" fill="#909090"/>
</svg>
