<svg width="129" height="46" viewBox="0 0 129 46" fill="none" xmlns="http://www.w3.org/2000/svg">
<rect width="129" height="46" rx="23" fill="#006FCE"/>
<path d="M95.1582 37.1143V34.6503H108.038V37.1143H95.1582ZM107.688 30.3803V32.6903H95.6482V27.3843H107.492V29.5823H98.7702V30.3803H107.688ZM95.6482 26.7963V24.5283H107.548V26.7963H95.6482Z" fill="#909090"/>
<path d="M95.1582 37.1143V34.6503H108.038V37.1143H95.1582ZM107.688 30.3803V32.6903H95.6482V27.3843H107.492V29.5823H98.7702V30.3803H107.688ZM95.6482 26.7963V24.5283H107.548V26.7963H95.6482Z" fill="white"/>
<path d="M81.4375 32.2564V24.4584H83.8735V26.0264H85.1475V24.4584H87.4855V27.1884H88.5355V24.3184H90.9855V33.9644H88.5355V29.5684H87.4855V32.2564H81.4375ZM94.2475 35.0284V37.3244H82.0255V32.9564H85.1475V35.0284H94.2475ZM91.5315 33.9644V24.3184H94.0375V33.9644H91.5315ZM83.8735 28.3224V29.9604H85.1475V28.3224H83.8735Z" fill="#909090"/>
<path d="M81.4375 32.2564V24.4584H83.8735V26.0264H85.1475V24.4584H87.4855V27.1884H88.5355V24.3184H90.9855V33.9644H88.5355V29.5684H87.4855V32.2564H81.4375ZM94.2475 35.0284V37.3244H82.0255V32.9564H85.1475V35.0284H94.2475ZM91.5315 33.9644V24.3184H94.0375V33.9644H91.5315ZM83.8735 28.3224V29.9604H85.1475V28.3224H83.8735Z" fill="white"/>
<path d="M67.4375 33.6564V27.9864C67.4375 25.9284 69.2155 24.5284 71.3855 24.5284C73.5695 24.5284 75.3615 25.9284 75.3615 27.9864V33.6564C75.3615 35.7144 73.5695 37.1144 71.3855 37.1144C69.2155 37.1144 67.4375 35.7144 67.4375 33.6564ZM76.7335 37.3244V24.3184H79.8835V37.3244H76.7335ZM70.4195 27.8464V33.7964C70.4195 34.2864 70.8255 34.7484 71.4275 34.7484C72.0295 34.7484 72.4495 34.2864 72.4495 33.7964V27.8464C72.4495 27.3844 72.0295 26.8804 71.4275 26.8804C70.8255 26.8804 70.4195 27.3844 70.4195 27.8464Z" fill="#909090"/>
<path d="M67.4375 33.6564V27.9864C67.4375 25.9284 69.2155 24.5284 71.3855 24.5284C73.5695 24.5284 75.3615 25.9284 75.3615 27.9864V33.6564C75.3615 35.7144 73.5695 37.1144 71.3855 37.1144C69.2155 37.1144 67.4375 35.7144 67.4375 33.6564ZM76.7335 37.3244V24.3184H79.8835V37.3244H76.7335ZM70.4195 27.8464V33.7964C70.4195 34.2864 70.8255 34.7484 71.4275 34.7484C72.0295 34.7484 72.4495 34.2864 72.4495 33.7964V27.8464C72.4495 27.3844 72.0295 26.8804 71.4275 26.8804C70.8255 26.8804 70.4195 27.3844 70.4195 27.8464Z" fill="white"/>
<path d="M58.5376 37.3244V24.3184H61.6876V37.3244H58.5376ZM49.1716 27.2584V24.7384H57.4316V26.8384C57.4316 32.9564 53.9596 36.2604 49.1016 37.0444V34.3704C52.3776 33.5444 54.5196 31.2904 54.5196 27.2584H49.1716Z" fill="#909090"/>
<path d="M58.5376 37.3244V24.3184H61.6876V37.3244H58.5376ZM49.1716 27.2584V24.7384H57.4316V26.8384C57.4316 32.9564 53.9596 36.2604 49.1016 37.0444V34.3704C52.3776 33.5444 54.5196 31.2904 54.5196 27.2584H49.1716Z" fill="white"/>
<path d="M34.9609 31.0664V29.0364H47.8409V31.0664H34.9609ZM35.4509 33.2504V31.7664H47.3509V35.1824H38.4469V35.7004H47.5609V37.3244H35.4509V33.7544H44.3269V33.2504H35.4509ZM47.4209 26.6564V28.4344H35.4509V24.3184H47.3509V26.0404H38.5309V26.6564H47.4209Z" fill="#909090"/>
<path d="M34.9609 31.0664V29.0364H47.8409V31.0664H34.9609ZM35.4509 33.2504V31.7664H47.3509V35.1824H38.4469V35.7004H47.5609V37.3244H35.4509V33.7544H44.3269V33.2504H35.4509ZM47.4209 26.6564V28.4344H35.4509V24.3184H47.3509V26.0404H38.5309V26.6564H47.4209Z" fill="white"/>
<path d="M21.2402 31.5844V24.5284H28.7162V31.5844H21.2402ZM33.5602 35.0284V37.3244H21.8282V32.5924H24.9502V35.0284H33.5602ZM30.2002 33.9084V24.3184H33.2802V27.4964H34.7362V30.0304H33.2802V33.9084H30.2002ZM24.1942 26.7684V29.3444H25.8182V26.7684H24.1942Z" fill="#909090"/>
<path d="M21.2402 31.5844V24.5284H28.7162V31.5844H21.2402ZM33.5602 35.0284V37.3244H21.8282V32.5924H24.9502V35.0284H33.5602ZM30.2002 33.9084V24.3184H33.2802V27.4964H34.7362V30.0304H33.2802V33.9084H30.2002ZM24.1942 26.7684V29.3444H25.8182V26.7684H24.1942Z" fill="white"/>
<path d="M103.894 17.8104V20.3444L95.4375 20.9044V11.8884H103.278V14.1984H98.5175V18.2024L103.894 17.8104ZM104.398 21.3244V8.31836H107.478V13.0364H108.934V15.7104H107.478V21.3244H104.398ZM95.4375 11.1184V8.73836H103.348V11.1184H95.4375Z" fill="#909090"/>
<path d="M103.894 17.8104V20.3444L95.4375 20.9044V11.8884H103.278V14.1984H98.5175V18.2024L103.894 17.8104ZM104.398 21.3244V8.31836H107.478V13.0364H108.934V15.7104H107.478V21.3244H104.398ZM95.4375 11.1184V8.73836H103.348V11.1184H95.4375Z" fill="white"/>
<path d="M81.4375 20.9044V8.65436H84.3915V11.6504H86.0295V8.65436H88.9275V20.9044H86.0295V20.4004L81.4375 20.9044ZM90.3975 21.3244V8.31836H93.4775V13.0364H94.9335V15.7104H93.4775V21.3244H90.3975ZM84.3915 14.0164V18.1884L86.0295 18.0204V14.0164H84.3915Z" fill="#909090"/>
<path d="M81.4375 20.9044V8.65436H84.3915V11.6504H86.0295V8.65436H88.9275V20.9044H86.0295V20.4004L81.4375 20.9044ZM90.3975 21.3244V8.31836H93.4775V13.0364H94.9335V15.7104H93.4775V21.3244H90.3975ZM84.3915 14.0164V18.1884L86.0295 18.0204V14.0164H84.3915Z" fill="white"/>
<path d="M67.4375 17.6564V11.9864C67.4375 9.92836 69.1175 8.52836 71.1755 8.52836C73.2475 8.52836 74.9275 9.92836 74.9275 11.9864V17.6564C74.9275 19.7144 73.2475 21.1144 71.1755 21.1144C69.1175 21.1144 67.4375 19.7144 67.4375 17.6564ZM76.3975 21.3244V8.31836H79.4775V13.0364H80.9335V15.7104H79.4775V21.3244H76.3975ZM70.2515 11.8184V17.8244C70.2515 18.3144 70.6435 18.7484 71.2035 18.7484C71.7635 18.7484 72.1695 18.3144 72.1695 17.8244V11.8184C72.1695 11.3564 71.7635 10.8804 71.2035 10.8804C70.6435 10.8804 70.2515 11.3564 70.2515 11.8184Z" fill="#909090"/>
<path d="M67.4375 17.6564V11.9864C67.4375 9.92836 69.1175 8.52836 71.1755 8.52836C73.2475 8.52836 74.9275 9.92836 74.9275 11.9864V17.6564C74.9275 19.7144 73.2475 21.1144 71.1755 21.1144C69.1175 21.1144 67.4375 19.7144 67.4375 17.6564ZM76.3975 21.3244V8.31836H79.4775V13.0364H80.9335V15.7104H79.4775V21.3244H76.3975ZM70.2515 11.8184V17.8244C70.2515 18.3144 70.6435 18.7484 71.2035 18.7484C71.7635 18.7484 72.1695 18.3144 72.1695 17.8244V11.8184C72.1695 11.3564 71.7635 10.8804 71.2035 10.8804C70.6435 10.8804 70.2515 11.3564 70.2515 11.8184Z" fill="white"/>
<path d="M49.3809 13.1904V11.8604C49.3809 9.50836 51.1589 8.31836 53.3289 8.31836C55.5129 8.31836 57.2909 9.50836 57.2909 11.8604V13.1904C57.2909 15.5284 55.5129 16.6624 53.3289 16.6624C51.1589 16.6624 49.3809 15.5284 49.3809 13.1904ZM58.5369 21.3244V8.31836H61.6869V21.3244H58.5369ZM48.9609 21.1144V18.5944L58.1869 18.0344V20.5544L48.9609 21.1144ZM52.2929 11.6924V13.3304C52.2929 13.9884 52.7549 14.3804 53.3289 14.3804C53.9309 14.3804 54.4069 13.9884 54.4069 13.3304V11.6924C54.4069 11.0344 53.9309 10.6004 53.3289 10.6004C52.7549 10.6004 52.2929 11.0344 52.2929 11.6924Z" fill="#909090"/>
<path d="M49.3809 13.1904V11.8604C49.3809 9.50836 51.1589 8.31836 53.3289 8.31836C55.5129 8.31836 57.2909 9.50836 57.2909 11.8604V13.1904C57.2909 15.5284 55.5129 16.6624 53.3289 16.6624C51.1589 16.6624 49.3809 15.5284 49.3809 13.1904ZM58.5369 21.3244V8.31836H61.6869V21.3244H58.5369ZM48.9609 21.1144V18.5944L58.1869 18.0344V20.5544L48.9609 21.1144ZM52.2929 11.6924V13.3304C52.2929 13.9884 52.7549 14.3804 53.3289 14.3804C53.9309 14.3804 54.4069 13.9884 54.4069 13.3304V11.6924C54.4069 11.0344 53.9309 10.6004 53.3289 10.6004C52.7549 10.6004 52.2929 11.0344 52.2929 11.6924Z" fill="white"/>
<path d="M35.2402 12.4764V11.4544C35.2402 9.39636 36.9202 8.31836 38.9782 8.31836C40.7422 8.31836 42.2402 9.11636 42.6182 10.6564H44.6202V8.31836H47.7002V15.9764H44.6202V13.0504H42.6602C42.3662 14.7304 40.8262 15.5844 38.9782 15.5844C36.9202 15.5844 35.2402 14.5344 35.2402 12.4764ZM35.6882 18.6364V16.3264H47.7002V21.3944H44.4802V18.6364H35.6882ZM38.0542 11.2304V12.6864C38.0542 13.2324 38.4602 13.5684 39.0062 13.5684C39.5522 13.5684 39.9722 13.2324 39.9722 12.6864V11.2304C39.9722 10.6844 39.5522 10.3344 39.0062 10.3344C38.4602 10.3344 38.0542 10.6844 38.0542 11.2304Z" fill="#909090"/>
<path d="M35.2402 12.4764V11.4544C35.2402 9.39636 36.9202 8.31836 38.9782 8.31836C40.7422 8.31836 42.2402 9.11636 42.6182 10.6564H44.6202V8.31836H47.7002V15.9764H44.6202V13.0504H42.6602C42.3662 14.7304 40.8262 15.5844 38.9782 15.5844C36.9202 15.5844 35.2402 14.5344 35.2402 12.4764ZM35.6882 18.6364V16.3264H47.7002V21.3944H44.4802V18.6364H35.6882ZM38.0542 11.2304V12.6864C38.0542 13.2324 38.4602 13.5684 39.0062 13.5684C39.5522 13.5684 39.9722 13.2324 39.9722 12.6864V11.2304C39.9722 10.6844 39.5522 10.3344 39.0062 10.3344C38.4602 10.3344 38.0542 10.6844 38.0542 11.2304Z" fill="white"/>
<path d="M21.4509 11.5381V9.15809H25.8329V8.03809H28.9829V9.15809H33.3509V11.5381H29.0389C29.4169 12.7281 31.1809 13.0641 33.4909 13.0641V15.5001C30.4249 15.5001 28.4789 14.8141 27.4009 13.6241C26.3089 14.8281 24.3769 15.5001 21.3109 15.5001V13.0641C23.6209 13.0641 25.3849 12.7281 25.7629 11.5381H21.4509ZM20.9609 18.4961V16.0321H33.8409V18.4961H29.0109V21.4641H25.7909V18.4961H20.9609Z" fill="#909090"/>
<path d="M21.4509 11.5381V9.15809H25.8329V8.03809H28.9829V9.15809H33.3509V11.5381H29.0389C29.4169 12.7281 31.1809 13.0641 33.4909 13.0641V15.5001C30.4249 15.5001 28.4789 14.8141 27.4009 13.6241C26.3089 14.8281 24.3769 15.5001 21.3109 15.5001V13.0641C23.6209 13.0641 25.3849 12.7281 25.7629 11.5381H21.4509ZM20.9609 18.4961V16.0321H33.8409V18.4961H29.0109V21.4641H25.7909V18.4961H20.9609Z" fill="white"/>
</svg>
