<svg width="129" height="46" viewBox="0 0 129 46" fill="none" xmlns="http://www.w3.org/2000/svg">
<path d="M95.1602 37.1133V34.6493H108.04V37.1133H95.1602ZM107.69 30.3793V32.6893H95.6502V27.3833H107.494V29.5813H98.7722V30.3793H107.69ZM95.6502 26.7953V24.5273H107.55V26.7953H95.6502Z" fill="#909090"/>
<path d="M81.4395 32.2554V24.4574H83.8755V26.0254H85.1495V24.4574H87.4875V27.1874H88.5375V24.3174H90.9875V33.9634H88.5375V29.5674H87.4875V32.2554H81.4395ZM94.2495 35.0274V37.3234H82.0275V32.9554H85.1495V35.0274H94.2495ZM91.5335 33.9634V24.3174H94.0395V33.9634H91.5335ZM83.8755 28.3214V29.9594H85.1495V28.3214H83.8755Z" fill="#909090"/>
<path d="M67.4395 33.6554V27.9854C67.4395 25.9274 69.2175 24.5274 71.3875 24.5274C73.5715 24.5274 75.3635 25.9274 75.3635 27.9854V33.6554C75.3635 35.7134 73.5715 37.1134 71.3875 37.1134C69.2175 37.1134 67.4395 35.7134 67.4395 33.6554ZM76.7355 37.3234V24.3174H79.8855V37.3234H76.7355ZM70.4215 27.8454V33.7954C70.4215 34.2854 70.8275 34.7474 71.4295 34.7474C72.0315 34.7474 72.4515 34.2854 72.4515 33.7954V27.8454C72.4515 27.3834 72.0315 26.8794 71.4295 26.8794C70.8275 26.8794 70.4215 27.3834 70.4215 27.8454Z" fill="#909090"/>
<path d="M49.2422 33.6554V27.9854C49.2422 25.9274 51.0202 24.5274 53.1902 24.5274C55.3742 24.5274 57.1662 25.9274 57.1662 27.9854V33.6554C57.1662 35.7134 55.3742 37.1134 53.1902 37.1134C51.0202 37.1134 49.2422 35.7134 49.2422 33.6554ZM58.5382 37.3234V24.3174H61.6882V37.3234H58.5382ZM52.2242 27.8454V33.7954C52.2242 34.2854 52.6302 34.7474 53.2322 34.7474C53.8342 34.7474 54.2542 34.2854 54.2542 33.7954V27.8454C54.2542 27.3834 53.8342 26.8794 53.2322 26.8794C52.6302 26.8794 52.2242 27.3834 52.2242 27.8454Z" fill="#909090"/>
<path d="M35.2422 27.1874V24.7374H41.0942L40.3942 31.6954H37.9722V34.1314L41.9902 33.6694V36.1894L35.2422 36.9034V29.3714H37.9022L38.1262 27.1874H35.2422ZM40.9962 31.1074V28.5874H42.3402V24.3174H44.7902V37.3234H42.3402V31.1074H40.9962ZM45.3362 37.3234V24.3174H47.8422V37.3234H45.3362Z" fill="#909090"/>
<path d="M30.5382 31.3314V24.3174H33.6882V31.3314H30.5382ZM21.2422 26.3054V24.5274H29.1522V28.5314H24.1962V29.2174L30.2022 28.8254V30.6874L21.2422 31.2614V26.8794H26.1982V26.3054H21.2422ZM21.8302 33.2494V31.6814H33.6882V35.1534H24.9242V35.6714H33.8982V37.3234H21.8302V33.7254H30.5942V33.2494H21.8302Z" fill="#909090"/>
<path d="M79.8537 11.2014V9.29738H83.0457V8.31738H86.1397V17.8654H83.0457V13.7074H79.8537V11.8034H83.0457V11.2014H79.8537ZM73.6797 16.8434V8.45738H76.7597V14.3654L82.5557 14.1554V16.4794L73.6797 16.8434ZM86.3497 19.0274V21.3234H74.2677V17.4314H77.3897V19.0274H86.3497Z" fill="#909090"/>
<path d="M71.7904 10.9073H67.4224C67.6464 11.7193 68.8224 12.8673 71.9304 12.8253V15.1493C68.8504 15.1493 66.8484 14.2673 65.8404 12.9793C64.8184 14.2673 62.8304 15.1493 59.7504 15.1493V12.8253C62.8304 12.8673 64.0624 11.7193 64.2444 10.9073H59.8904V8.52734H71.7904V10.9073ZM59.4004 18.0473V15.6953H72.2804V18.0473H67.4224V21.4633H64.2584V18.0473H59.4004Z" fill="#909090"/>
<path d="M51.0605 18.4117V11.2297C51.0605 9.24174 52.6985 8.17773 54.6725 8.17773C56.6465 8.17773 58.2845 9.24174 58.2845 11.2297V18.4117C58.2845 20.3997 56.6465 21.4637 54.6725 21.4637C52.6985 21.4637 51.0605 20.3997 51.0605 18.4117ZM53.8605 11.2297V18.4117C53.8605 18.8597 54.2245 19.2237 54.6725 19.2237C55.1205 19.2237 55.4845 18.8597 55.4845 18.4117V11.2297C55.4845 10.7817 55.1205 10.4177 54.6725 10.4177C54.2245 10.4177 53.8605 10.7817 53.8605 11.2297Z" fill="#909090"/>
<path d="M45.3381 15.4437V13.2037L46.2621 13.1337C46.6821 13.0917 47.1441 12.7697 47.1441 12.3217V11.0897C47.1441 10.6417 46.7801 10.2777 46.3321 10.2777C45.8841 10.2777 45.5201 10.6417 45.5201 11.0897V12.1117H42.7201V11.2297C42.7201 9.24174 44.3581 8.17773 46.3321 8.17773C48.3061 8.17773 49.9441 9.24174 49.9441 11.2297V12.1817C49.9441 13.2457 49.5241 13.9037 48.8521 14.3097C49.5941 14.7157 50.0841 15.3877 50.0841 16.4657V18.4117C50.0841 20.3997 48.3061 21.4637 46.3321 21.4637C44.3581 21.4637 42.5801 20.3997 42.5801 18.4117V16.8857H45.5201V18.4117C45.5201 18.8597 45.8841 19.2237 46.3321 19.2237C46.7801 19.2237 47.1441 18.8597 47.1441 18.4117V16.3257C47.1441 15.8777 46.6401 15.5137 46.1921 15.5137L45.3381 15.4437Z" fill="#909090"/>
</svg>
