<svg width="128" height="46" viewBox="0 0 128 46" fill="none" xmlns="http://www.w3.org/2000/svg">
<path d="M108.474 17.2769V29.7231H105.705L103.476 23.4238V29.7231H100.707V17.2769H103.476L105.705 23.6315V17.2769H108.474Z" fill="#636363"/>
<path d="M91.9023 27.1203V19.8797C91.9023 17.7614 93.6329 17 95.7511 17C97.8693 17 99.5999 17.7614 99.5999 19.8797V27.1203C99.5999 29.2386 97.8693 30 95.7511 30C93.6329 30 91.9023 29.2386 91.9023 27.1203ZM94.782 20.3365V26.6635C94.782 27.2034 95.2112 27.4941 95.7511 27.4941C96.2911 27.4941 96.7202 27.2034 96.7202 26.6635V20.3365C96.7202 19.7966 96.2911 19.5059 95.7511 19.5059C95.2112 19.5059 94.782 19.7966 94.782 20.3365Z" fill="#636363"/>
<path d="M83.1016 27.1203V19.8797C83.1016 17.7614 84.8321 17 86.9503 17C89.0686 17 90.7991 17.7614 90.7991 19.8797V27.1203C90.7991 29.2386 89.0686 30 86.9503 30C84.8321 30 83.1016 29.2386 83.1016 27.1203ZM85.9812 20.3365V26.6635C85.9812 27.2034 86.4104 27.4941 86.9503 27.4941C87.4903 27.4941 87.9195 27.2034 87.9195 26.6635V20.3365C87.9195 19.7966 87.4903 19.5059 86.9503 19.5059C86.4104 19.5059 85.9812 19.7966 85.9812 20.3365Z" fill="#636363"/>
<path d="M77.3278 20.2673V20.8349C77.3278 21.2641 77.577 21.5133 78.6569 21.8871C82.1457 23.147 82.1457 24.0469 82.1457 26.3727V27.1203C82.1457 29.2386 80.3459 30 78.2277 30C76.1095 30 74.3789 29.2386 74.3789 27.1203V25.2513H77.3555V26.6635C77.3555 27.2034 77.757 27.4941 78.2969 27.4941C78.8368 27.4941 79.2383 27.2034 79.2383 26.6635V26.3727C79.2383 24.8083 79.1691 24.7391 76.6909 23.7838C74.7666 23.0501 74.4204 21.8179 74.4204 20.8349V19.8797C74.4204 17.7614 76.151 17 78.2692 17C80.3874 17 82.118 17.7614 82.118 19.8797V21.2087H79.2106V20.3365C79.2106 19.7966 78.8091 19.5059 78.2692 19.5059C77.7293 19.5059 77.3278 19.7274 77.3278 20.2673Z" fill="#636363"/>
<path d="M65.6591 25.3206V23.0362H69.4387V27.1203C69.4387 29.2386 67.7081 30 65.5899 30C63.4717 30 61.6719 29.2386 61.6719 27.1203V19.8797C61.6719 17.7614 63.4024 17 65.5207 17C67.6389 17 69.3694 17.7614 69.3694 19.8797V21.3056H66.4621V20.3365C66.4621 19.7966 66.0606 19.5059 65.5207 19.5059C64.9807 19.5059 64.5792 19.7966 64.5792 20.3365V26.6635C64.5792 27.2034 65.0499 27.4941 65.5899 27.4941C66.1298 27.4941 66.6005 27.2034 66.6005 26.6635V25.3206H65.6591Z" fill="#636363"/>
<path d="M60.5715 17.2769V29.7231H57.8026L55.5736 23.4238V29.7231H52.8047V17.2769H55.5736L57.8026 23.6315V17.2769H60.5715Z" fill="#636363"/>
<path d="M51.6981 17.2769V29.7231H48.6523V17.2769H51.6981Z" fill="#636363"/>
<path d="M36.9297 29.7231V17.2769H40.7092L42.2737 25.2928L43.8935 17.2769H47.5484V29.7231H44.7795V22.9393L43.3535 29.7231H41.2076L39.6986 22.9393V29.7231H36.9297Z" fill="#636363"/>
<path d="M28.1289 27.1203V19.8797C28.1289 17.7614 29.8595 17 31.9777 17C34.0959 17 35.8265 17.7614 35.8265 19.8797V27.1203C35.8265 29.2386 34.0959 30 31.9777 30C29.8595 30 28.1289 29.2386 28.1289 27.1203ZM31.0086 20.3365V26.6635C31.0086 27.2034 31.4377 27.4941 31.9777 27.4941C32.5176 27.4941 32.9468 27.2034 32.9468 26.6635V20.3365C32.9468 19.7966 32.5176 19.5059 31.9777 19.5059C31.4377 19.5059 31.0086 19.7966 31.0086 20.3365Z" fill="#636363"/>
<path d="M24.3215 25.2513H27.298V27.1203C27.298 29.2386 25.5675 30 23.4492 30C21.331 30 19.5312 29.2386 19.5312 27.1203V19.8797C19.5312 17.7614 21.2618 17 23.38 17C25.4982 17 27.2288 17.7614 27.2288 19.8797V21.3056H24.3215V20.3365C24.3215 19.7966 23.92 19.5059 23.38 19.5059C22.8401 19.5059 22.4386 19.7966 22.4386 20.3365V26.6635C22.4386 27.2034 22.8401 27.4941 23.38 27.4941C23.92 27.4941 24.3215 27.2034 24.3215 26.6635V25.2513Z" fill="#636363"/>
</svg>
