<svg width="264" height="45" viewBox="0 0 264 45" fill="none" xmlns="http://www.w3.org/2000/svg">
<rect x="90" width="84" height="22" rx="11" fill="#3165C6"/>
<path d="M100.72 13.848V8.988C100.72 7.224 102.244 6.024 104.104 6.024C105.976 6.024 107.512 7.224 107.512 8.988V13.848C107.512 15.612 105.976 16.812 104.104 16.812C102.244 16.812 100.72 15.612 100.72 13.848ZM108.688 16.992V5.844H111.388V16.992H108.688ZM103.276 8.868V13.968C103.276 14.388 103.624 14.784 104.14 14.784C104.656 14.784 105.016 14.388 105.016 13.968V8.868C105.016 8.472 104.656 8.04 104.14 8.04C103.624 8.04 103.276 8.472 103.276 8.868ZM112.72 12.648V5.964H114.808V7.308H115.9V5.964H117.904V8.304H118.804V5.844H120.904V14.112H118.804V10.344H117.904V12.648H112.72ZM123.7 15.024V16.992H113.224V13.248H115.9V15.024H123.7ZM121.372 14.112V5.844H123.52V14.112H121.372ZM114.808 9.276V10.68H115.9V9.276H114.808ZM124.48 16.812V14.7H135.52V16.812H124.48ZM135.22 11.04V13.02H124.9V8.472H135.052V10.356H127.576V11.04H135.22ZM124.9 7.968V6.024H135.1V7.968H124.9ZM148.286 11.82V5.844H150.986V11.82H148.286ZM140.822 13.416V12.06H150.986V15.12H143.474V15.576H151.166V16.992H140.822V13.848H148.334V13.416H140.822ZM140.318 9.012V8.46C140.318 6.696 141.842 5.844 143.714 5.844C145.574 5.844 147.098 6.696 147.098 8.46V9.012C147.098 10.752 145.574 11.592 143.714 11.592C141.842 11.592 140.318 10.752 140.318 9.012ZM142.91 8.256V9.216C142.91 9.636 143.246 9.936 143.714 9.936C144.158 9.936 144.518 9.636 144.518 9.216V8.256C144.518 7.836 144.158 7.5 143.714 7.5C143.246 7.5 142.91 7.836 142.91 8.256ZM158.618 10.044V8.232H160.346V5.844H162.998V12.468H160.346V10.044H158.618ZM152.318 7.932V6.024H159.23V7.932H156.962C156.974 9.54 157.97 10.32 159.35 10.416V12.372C157.778 12.336 156.554 11.856 155.774 10.776C154.97 11.856 153.746 12.336 152.198 12.372V10.416C153.59 10.32 154.586 9.54 154.586 7.932H152.318ZM152.702 14.88C152.702 13.596 153.734 12.708 155.03 12.708H160.766C162.086 12.708 163.118 13.596 163.118 14.88C163.118 16.128 162.086 17.052 160.766 17.052H155.03C153.734 17.052 152.702 16.128 152.702 14.88ZM155.81 15.264H159.974C160.31 15.264 160.478 15.108 160.478 14.88C160.478 14.616 160.31 14.484 159.974 14.484H155.81C155.522 14.484 155.354 14.616 155.354 14.88C155.354 15.108 155.522 15.264 155.81 15.264Z" fill="#CDCDCD"/>
<path d="M4.238 35.305V34.785C4.238 34.369 4.03 34.031 3.614 34.031C3.198 34.031 2.99 34.369 2.99 34.785V35.734H0.39V34.785C0.39 32.939 1.781 31.951 3.614 31.951C5.447 31.951 6.968 32.939 6.968 34.785V35.305C6.968 36.917 6.318 37.723 4.927 39.218C3.523 40.726 3.12 41.012 3.12 41.649V41.883H6.968V43.963H0.26V41.649C0.26 40.7 0.351 39.985 2.626 37.983C4.017 36.774 4.238 36.137 4.238 35.305ZM7.74363 41.454V34.785C7.74363 32.939 9.26463 31.951 11.0976 31.951C12.9306 31.951 14.4516 32.939 14.4516 34.785V41.454C14.4516 43.3 12.9306 44.288 11.0976 44.288C9.26463 44.288 7.74363 43.3 7.74363 41.454ZM10.3436 34.785V41.454C10.3436 41.87 10.6816 42.208 11.0976 42.208C11.5136 42.208 11.8516 41.87 11.8516 41.454V34.785C11.8516 34.369 11.5136 34.031 11.0976 34.031C10.6816 34.031 10.3436 34.369 10.3436 34.785ZM19.2058 35.305V34.785C19.2058 34.369 18.9978 34.031 18.5818 34.031C18.1658 34.031 17.9578 34.369 17.9578 34.785V35.734H15.3578V34.785C15.3578 32.939 16.7488 31.951 18.5818 31.951C20.4148 31.951 21.9358 32.939 21.9358 34.785V35.305C21.9358 36.917 21.2858 37.723 19.8948 39.218C18.4908 40.726 18.0878 41.012 18.0878 41.649V41.883H21.9358V43.963H15.2278V41.649C15.2278 40.7 15.3188 39.985 17.5938 37.983C18.9848 36.774 19.2058 36.137 19.2058 35.305ZM25.0384 32.211H28.8474V40.18H29.7574V42.39H28.8474V44.028H26.3904V42.39H22.3214V40.18L25.0384 32.211ZM26.3774 40.18V35.071L24.7654 40.18H26.3774ZM36.2708 34.759V32.991H39.2348V32.081H42.1078V40.947H39.2348V37.086H36.2708V35.318H39.2348V34.759H36.2708ZM30.5378 39.998V32.211H33.3978V37.697L38.7798 37.502V39.66L30.5378 39.998ZM42.3028 42.026V44.158H31.0838V40.544H33.9828V42.026H42.3028ZM49.6063 38.698V36.618L50.4643 36.553C50.8543 36.514 51.2833 36.215 51.2833 35.799V34.655C51.2833 34.239 50.9453 33.901 50.5293 33.901C50.1133 33.901 49.7753 34.239 49.7753 34.655V35.604H47.1753V34.785C47.1753 32.939 48.6963 31.951 50.5293 31.951C52.3623 31.951 53.8833 32.939 53.8833 34.785V35.669C53.8833 36.657 53.4933 37.268 52.8693 37.645C53.5583 38.022 54.0133 38.646 54.0133 39.647V41.454C54.0133 43.3 52.3623 44.288 50.5293 44.288C48.6963 44.288 47.0453 43.3 47.0453 41.454V40.037H49.7753V41.454C49.7753 41.87 50.1133 42.208 50.5293 42.208C50.9453 42.208 51.2833 41.87 51.2833 41.454V39.517C51.2833 39.101 50.8153 38.763 50.3993 38.763L49.6063 38.698ZM54.9194 38.204V36.488H63.5644V38.204H60.2234L60.0544 39.14H66.7364V42.247H58.4554V42.728H66.8664V44.158H55.7254V40.986H64.0064V40.544H55.7254V39.14H57.4284L57.5974 38.204H54.9194ZM55.1794 34.2C55.1794 33.108 56.0244 32.211 57.2334 32.211H60.5614C61.7574 32.211 62.6284 33.108 62.6284 34.2C62.6284 35.292 61.7574 36.176 60.5614 36.176H57.2334C56.0244 36.176 55.1794 35.292 55.1794 34.2ZM62.8364 35.435V33.42H63.8764V32.081H66.7364V38.815H63.8764V35.435H62.8364ZM57.6234 34.226C57.6234 34.434 57.7794 34.616 57.9484 34.616H59.8854C60.0544 34.616 60.2104 34.434 60.2104 34.226C60.2104 34.018 60.0544 33.836 59.8854 33.836H57.9484C57.7794 33.836 57.6234 34.018 57.6234 34.226ZM75.4829 44.028H72.7529V35.487H71.4269V33.537C72.1549 33.537 72.9609 32.9 72.9609 32.211H75.4829V44.028ZM78.8538 32.211H82.6628V40.18H83.5728V42.39H82.6628V44.028H80.2058V42.39H76.1368V40.18L78.8538 32.211ZM80.1928 40.18V35.071L78.5808 40.18H80.1928ZM92.9852 38.555V32.081H95.9102V38.555H92.9852ZM84.8992 40.284V38.815H95.9102V42.13H87.7722V42.624H96.1052V44.158H84.8992V40.752H93.0372V40.284H84.8992ZM84.3532 35.513V34.915C84.3532 33.004 86.0042 32.081 88.0322 32.081C90.0472 32.081 91.6982 33.004 91.6982 34.915V35.513C91.6982 37.398 90.0472 38.308 88.0322 38.308C86.0042 38.308 84.3532 37.398 84.3532 35.513ZM87.1612 34.694V35.734C87.1612 36.189 87.5252 36.514 88.0322 36.514C88.5132 36.514 88.9032 36.189 88.9032 35.734V34.694C88.9032 34.239 88.5132 33.875 88.0322 33.875C87.5252 33.875 87.1612 34.239 87.1612 34.694ZM98.1332 34.187C98.1332 31.834 99.7842 31.613 101.708 31.613V33.563C101.045 33.563 100.603 33.758 100.603 34.343V41.857C100.603 42.442 101.045 42.637 101.708 42.637V44.587C99.7842 44.587 98.1332 44.366 98.1332 42.013V34.187ZM103.071 36.462V32.081H114.121V36.462H109.961V37.463H114.576V39.478H102.616V37.463H107.218V36.462H103.071ZM103.006 41.948V40.167H114.121V44.288H111.313V41.948H103.006ZM105.814 33.771V34.772H111.378V33.771H105.814ZM119.061 34.187V42.013C119.061 44.366 117.41 44.587 115.486 44.587V42.637C116.149 42.637 116.591 42.442 116.591 41.857V34.343C116.591 33.758 116.149 33.563 115.486 33.563V31.613C117.41 31.613 119.061 31.834 119.061 34.187ZM126.726 39.504H125.036C125.374 37.138 126.518 36.319 127.558 36.319C128.338 36.319 128.585 36.423 129.521 36.878C130.34 37.281 130.756 37.528 131.211 37.619C131.744 37.71 131.965 37.463 132.108 36.41H133.798C133.525 38.906 132.511 39.582 131.354 39.582C130.535 39.582 130.002 39.426 129.183 39.023C128.52 38.698 128.065 38.386 127.61 38.425C127.22 38.464 126.934 38.516 126.726 39.504ZM142.452 35.305V34.785C142.452 34.369 142.244 34.031 141.828 34.031C141.412 34.031 141.204 34.369 141.204 34.785V35.734H138.604V34.785C138.604 32.939 139.995 31.951 141.828 31.951C143.661 31.951 145.182 32.939 145.182 34.785V35.305C145.182 36.917 144.532 37.723 143.141 39.218C141.737 40.726 141.334 41.012 141.334 41.649V41.883H145.182V43.963H138.474V41.649C138.474 40.7 138.565 39.985 140.84 37.983C142.231 36.774 142.452 36.137 142.452 35.305ZM145.958 41.454V34.785C145.958 32.939 147.479 31.951 149.312 31.951C151.145 31.951 152.666 32.939 152.666 34.785V41.454C152.666 43.3 151.145 44.288 149.312 44.288C147.479 44.288 145.958 43.3 145.958 41.454ZM148.558 34.785V41.454C148.558 41.87 148.896 42.208 149.312 42.208C149.728 42.208 150.066 41.87 150.066 41.454V34.785C150.066 34.369 149.728 34.031 149.312 34.031C148.896 34.031 148.558 34.369 148.558 34.785ZM157.42 35.305V34.785C157.42 34.369 157.212 34.031 156.796 34.031C156.38 34.031 156.172 34.369 156.172 34.785V35.734H153.572V34.785C153.572 32.939 154.963 31.951 156.796 31.951C158.629 31.951 160.15 32.939 160.15 34.785V35.305C160.15 36.917 159.5 37.723 158.109 39.218C156.705 40.726 156.302 41.012 156.302 41.649V41.883H160.15V43.963H153.442V41.649C153.442 40.7 153.533 39.985 155.808 37.983C157.199 36.774 157.42 36.137 157.42 35.305ZM163.252 32.211H167.061V40.18H167.971V42.39H167.061V44.028H164.604V42.39H160.535V40.18L163.252 32.211ZM164.591 40.18V35.071L162.979 40.18H164.591ZM174.485 34.759V32.991H177.449V32.081H180.322V40.947H177.449V37.086H174.485V35.318H177.449V34.759H174.485ZM168.752 39.998V32.211H171.612V37.697L176.994 37.502V39.66L168.752 39.998ZM180.517 42.026V44.158H169.298V40.544H172.197V42.026H180.517ZM189.055 44.028H186.325V35.487H184.999V33.537C185.727 33.537 186.533 32.9 186.533 32.211H189.055V44.028ZM193.817 35.305V34.785C193.817 34.369 193.609 34.031 193.193 34.031C192.777 34.031 192.569 34.369 192.569 34.785V35.734H189.969V34.785C189.969 32.939 191.36 31.951 193.193 31.951C195.026 31.951 196.547 32.939 196.547 34.785V35.305C196.547 36.917 195.897 37.723 194.506 39.218C193.102 40.726 192.699 41.012 192.699 41.649V41.883H196.547V43.963H189.839V41.649C189.839 40.7 189.93 39.985 192.205 37.983C193.596 36.774 193.817 36.137 193.817 35.305ZM197.323 38.204V36.488H205.968V38.204H202.627L202.458 39.14H209.14V42.247H200.859V42.728H209.27V44.158H198.129V40.986H206.41V40.544H198.129V39.14H199.832L200.001 38.204H197.323ZM197.583 34.2C197.583 33.108 198.428 32.211 199.637 32.211H202.965C204.161 32.211 205.032 33.108 205.032 34.2C205.032 35.292 204.161 36.176 202.965 36.176H199.637C198.428 36.176 197.583 35.292 197.583 34.2ZM205.24 35.435V33.42H206.28V32.081H209.14V38.815H206.28V35.435H205.24ZM200.027 34.226C200.027 34.434 200.183 34.616 200.352 34.616H202.289C202.458 34.616 202.614 34.434 202.614 34.226C202.614 34.018 202.458 33.836 202.289 33.836H200.352C200.183 33.836 200.027 34.018 200.027 34.226ZM216.651 38.698V36.618L217.509 36.553C217.899 36.514 218.328 36.215 218.328 35.799V34.655C218.328 34.239 217.99 33.901 217.574 33.901C217.158 33.901 216.82 34.239 216.82 34.655V35.604H214.22V34.785C214.22 32.939 215.741 31.951 217.574 31.951C219.407 31.951 220.928 32.939 220.928 34.785V35.669C220.928 36.657 220.538 37.268 219.914 37.645C220.603 38.022 221.058 38.646 221.058 39.647V41.454C221.058 43.3 219.407 44.288 217.574 44.288C215.741 44.288 214.09 43.3 214.09 41.454V40.037H216.82V41.454C216.82 41.87 217.158 42.208 217.574 42.208C217.99 42.208 218.328 41.87 218.328 41.454V39.517C218.328 39.101 217.86 38.763 217.444 38.763L216.651 38.698ZM225.63 44.028H222.9V35.487H221.574V33.537C222.302 33.537 223.108 32.9 223.108 32.211H225.63V44.028ZM235.566 38.555V32.081H238.491V38.555H235.566ZM227.48 40.284V38.815H238.491V42.13H230.353V42.624H238.686V44.158H227.48V40.752H235.618V40.284H227.48ZM226.934 35.513V34.915C226.934 33.004 228.585 32.081 230.613 32.081C232.628 32.081 234.279 33.004 234.279 34.915V35.513C234.279 37.398 232.628 38.308 230.613 38.308C228.585 38.308 226.934 37.398 226.934 35.513ZM229.742 34.694V35.734C229.742 36.189 230.106 36.514 230.613 36.514C231.094 36.514 231.484 36.189 231.484 35.734V34.694C231.484 34.239 231.094 33.875 230.613 33.875C230.106 33.875 229.742 34.239 229.742 34.694ZM240.714 34.187C240.714 31.834 242.365 31.613 244.289 31.613V33.563C243.626 33.563 243.184 33.758 243.184 34.343V41.857C243.184 42.442 243.626 42.637 244.289 42.637V44.587C242.365 44.587 240.714 44.366 240.714 42.013V34.187ZM253.777 44.158V32.081H256.637V36.462H257.989V38.945H256.637V44.158H253.777ZM251.151 39.764H247.329C246.328 39.764 245.457 38.724 245.457 37.437C245.457 36.137 246.328 35.097 247.329 35.097H251.151C252.152 35.097 253.023 36.137 253.023 37.437C253.023 38.724 252.152 39.764 251.151 39.764ZM245.197 44.158V41.948L247.862 41.779V40.154H250.618V41.61L253.452 41.428V43.638L245.197 44.158ZM245.327 34.772V32.757H247.758V31.821H250.722V32.757H253.127V34.772H245.327ZM247.823 37.437C247.823 37.645 247.966 37.879 248.174 37.879H250.358C250.566 37.879 250.696 37.645 250.696 37.437C250.696 37.19 250.566 36.982 250.358 36.982H248.174C247.966 36.982 247.823 37.19 247.823 37.437ZM261.642 34.187V42.013C261.642 44.366 259.991 44.587 258.067 44.587V42.637C258.73 42.637 259.172 42.442 259.172 41.857V34.343C259.172 33.758 258.73 33.563 258.067 33.563V31.613C259.991 31.613 261.642 31.834 261.642 34.187Z" fill="white"/>
</svg>
