<svg width="91" height="32" viewBox="0 0 91 32" fill="none" xmlns="http://www.w3.org/2000/svg">
<path d="M0 16C0 7.16344 7.16344 0 16 0H75C83.8366 0 91 7.16344 91 16C91 24.8366 83.8366 32 75 32H16C7.16344 32 0 24.8366 0 16Z" fill="black"/>
<g clip-path="url(#clip0_1641_5598)">
<path d="M17.7014 20.5157L11.0039 15.9998L17.7014 11.4839L18.2985 12.4286L13.0019 15.9998L18.2985 19.571L17.7014 20.5157Z" fill="#B4B4B4"/>
<path d="M18.0024 13.4597C18.8062 13.4597 19.4579 12.7866 19.4579 11.9562C19.4579 11.1258 18.8062 10.4526 18.0024 10.4526C17.1985 10.4526 16.5469 11.1258 16.5469 11.9562C16.5469 12.7866 17.1985 13.4597 18.0024 13.4597Z" fill="#B4B4B4"/>
<path d="M18.0014 14.0238C16.8977 14.0238 16 13.0962 16 11.9563C16 10.8164 16.8977 9.88867 18.0014 9.88867C19.1051 9.88867 20.0028 10.8162 20.0028 11.9561C20.0028 13.0961 19.1049 14.0236 18.0014 14.0236V14.0238ZM18.0014 11.0167C17.4999 11.0167 17.092 11.4382 17.092 11.9561C17.092 12.474 17.5001 12.8956 18.0014 12.8956C18.5028 12.8956 18.9108 12.474 18.9108 11.9561C18.9108 11.4382 18.5028 11.0167 18.0014 11.0167Z" fill="#B4B4B4"/>
<path d="M18.0024 21.5466C18.8062 21.5466 19.4579 20.8735 19.4579 20.0431C19.4579 19.2127 18.8062 18.5396 18.0024 18.5396C17.1985 18.5396 16.5469 19.2127 16.5469 20.0431C16.5469 20.8735 17.1985 21.5466 18.0024 21.5466Z" fill="#B4B4B4"/>
<path d="M18.0014 22.111C16.8977 22.111 16 21.1835 16 20.0435C16 18.9036 16.8979 17.9761 18.0014 17.9761C19.1049 17.9761 20.0028 18.9036 20.0028 20.0435C20.0028 21.1835 19.1049 22.111 18.0014 22.111ZM18.0014 19.1039C17.4999 19.1039 17.092 19.5254 17.092 20.0434C17.092 20.5613 17.5001 20.9828 18.0014 20.9828C18.5028 20.9828 18.9108 20.5613 18.9108 20.0434C18.9108 19.5254 18.5028 19.1039 18.0014 19.1039Z" fill="#B4B4B4"/>
<path d="M13.4387 16.2413C13.5675 15.4217 13.0286 14.6494 12.2352 14.5163C11.4417 14.3833 10.694 14.9399 10.5652 15.7595C10.4364 16.5792 10.9753 17.3515 11.7687 17.4846C12.5622 17.6176 13.3099 17.061 13.4387 16.2413Z" fill="#B4B4B4"/>
<path d="M12.0014 18.0675C10.8977 18.0675 10 17.14 10 16.0001C10 14.8602 10.8979 13.9326 12.0014 13.9326C13.1049 13.9326 14.0028 14.8602 14.0028 16.0001C14.0028 17.14 13.1049 18.0675 12.0014 18.0675ZM12.0014 15.0605C11.4999 15.0605 11.092 15.482 11.092 15.9999C11.092 16.5178 11.5001 16.9393 12.0014 16.9393C12.5028 16.9393 12.9108 16.5178 12.9108 15.9999C12.9108 15.482 12.5028 15.0605 12.0014 15.0605Z" fill="#B4B4B4"/>
</g>
<path d="M26.78 19.922C26.78 18.687 27.781 17.686 29.029 17.686H35.945C37.193 17.686 38.22 18.687 38.22 19.922C38.22 21.17 37.193 22.158 35.945 22.158H29.029C27.781 22.158 26.78 21.17 26.78 19.922ZM26.52 15.944C26.52 15.437 26.936 15.021 27.43 15.021H30.732V13.812C30.732 13.149 31.252 12.785 31.915 12.785C32.552 12.785 33.072 13.149 33.072 13.812V15.021H37.557C38.077 15.021 38.48 15.437 38.48 15.944C38.48 16.425 38.077 16.841 37.557 16.841H27.43C26.936 16.841 26.52 16.425 26.52 15.944ZM35.386 13.552C35.386 13.474 35.399 13.357 35.425 13.266C35.542 12.863 35.62 12.291 35.62 12.031H27.82C27.313 12.031 26.91 11.641 26.91 11.121C26.91 10.614 27.313 10.211 27.82 10.211H37.063C37.557 10.211 37.96 10.614 37.96 11.108C37.96 11.823 37.895 12.915 37.648 13.825C37.492 14.397 36.998 14.631 36.517 14.631C35.841 14.631 35.386 14.137 35.386 13.552ZM29.094 19.922C29.094 20.143 29.25 20.364 29.536 20.364H35.477C35.763 20.364 35.906 20.143 35.906 19.922C35.906 19.701 35.763 19.48 35.477 19.48H29.536C29.25 19.48 29.094 19.701 29.094 19.922ZM39.845 13.084C39.845 11.537 41.041 10.276 42.653 10.276H48.347C49.959 10.276 51.155 11.537 51.155 13.084C51.155 14.631 49.959 15.892 48.347 15.892H42.653C41.041 15.892 39.845 14.631 39.845 13.084ZM39.52 17.959C39.52 17.426 39.975 16.984 40.508 16.984H50.479C51.038 16.984 51.48 17.426 51.48 17.959C51.48 18.479 51.038 18.934 50.479 18.934H49.309V21.118C49.309 21.781 48.802 22.288 48.139 22.288C47.476 22.288 46.969 21.781 46.969 21.118V18.934H44.382C44.278 19.87 44.057 20.715 43.641 21.573C43.394 22.08 43.03 22.353 42.536 22.353C41.73 22.353 41.106 21.573 41.405 20.845C41.678 20.169 41.86 19.584 41.977 18.934H40.508C39.975 18.934 39.52 18.479 39.52 17.959ZM42.159 13.084C42.159 13.643 42.549 13.968 43.108 13.968H47.892C48.451 13.968 48.841 13.643 48.841 13.084C48.841 12.525 48.451 12.2 47.892 12.2H43.108C42.549 12.2 42.159 12.525 42.159 13.084ZM52.845 18.791V16.906C52.845 14.982 54.457 13.851 56.381 13.851C58.305 13.851 59.93 14.982 59.93 16.906V18.791C59.93 20.715 58.305 21.833 56.381 21.833C54.457 21.833 52.845 20.715 52.845 18.791ZM61.36 21.118V11.121C61.36 10.458 61.88 9.951 62.53 9.951C63.18 9.951 63.7 10.458 63.7 11.121V14.709H64.337C64.87 14.709 65.312 15.138 65.312 15.684C65.312 16.23 64.87 16.659 64.337 16.659H63.7V21.118C63.7 21.794 63.18 22.288 62.53 22.288C61.88 22.288 61.36 21.794 61.36 21.118ZM52.52 12.291C52.52 11.758 52.91 11.316 53.482 11.316H55.211V10.926C55.211 10.263 55.731 9.821 56.381 9.821C57.031 9.821 57.551 10.263 57.551 10.926V11.316H59.28C59.826 11.316 60.255 11.745 60.255 12.291C60.255 12.837 59.826 13.266 59.28 13.266H53.482C52.91 13.266 52.52 12.837 52.52 12.291ZM55.159 16.932V18.765C55.159 19.454 55.692 19.909 56.394 19.909C57.096 19.909 57.616 19.454 57.616 18.765V16.932C57.616 16.243 57.096 15.775 56.394 15.775C55.692 15.775 55.159 16.243 55.159 16.932ZM74.724 21.118V11.121C74.724 10.458 75.244 9.951 75.894 9.951C76.544 9.951 77.064 10.458 77.064 11.121V21.118C77.064 21.794 76.544 22.288 75.894 22.288C75.244 22.288 74.724 21.794 74.724 21.118ZM65.52 20.559C65.52 20.13 65.754 19.753 66.118 19.571C69.368 17.959 70.785 15.463 70.785 12.421H66.677C66.144 12.421 65.715 11.992 65.715 11.459C65.715 10.9 66.144 10.471 66.677 10.471H72.215C72.722 10.471 73.125 10.874 73.125 11.381V12.096C73.125 15.541 71.864 19.337 67.145 21.521C66.976 21.599 66.768 21.638 66.573 21.638C65.975 21.638 65.52 21.144 65.52 20.559Z" fill="white"/>
<defs>
<clipPath id="clip0_1641_5598">
<rect width="10" height="12.2222" fill="white" transform="translate(10 9.88867)"/>
</clipPath>
</defs>
</svg>
