<svg width="83" height="40" viewBox="0 0 83 40" fill="none" xmlns="http://www.w3.org/2000/svg">
<mask id="path-1-inside-1_572_2102" fill="white">
<path d="M0 0H83V40H0V0Z"/>
</mask>
<path d="M83 39H0V41H83V39Z" fill="white" fill-opacity="0.4" mask="url(#path-1-inside-1_572_2102)"/>
<path d="M1.33127 21.882V16.24C1.33127 14.446 2.87827 13.276 4.80227 13.276C6.72627 13.276 8.28627 14.446 8.28627 16.24V21.882C8.28627 23.676 6.72627 24.833 4.80227 24.833C2.87827 24.833 1.33127 23.676 1.33127 21.882ZM9.91127 24.118V14.121C9.91127 13.458 10.4313 12.951 11.0813 12.951C11.7313 12.951 12.2513 13.458 12.2513 14.121V17.709H12.8883C13.4213 17.709 13.8633 18.138 13.8633 18.684C13.8633 19.23 13.4213 19.659 12.8883 19.659H12.2513V24.118C12.2513 24.794 11.7313 25.288 11.0813 25.288C10.4313 25.288 9.91127 24.794 9.91127 24.118ZM3.64527 16.37V21.752C3.64527 22.467 4.17827 22.909 4.81527 22.909C5.45227 22.909 5.97227 22.467 5.97227 21.752V16.37C5.97227 15.655 5.45227 15.2 4.81527 15.2C4.17827 15.2 3.64527 15.655 3.64527 16.37ZM20.3893 24.638H15.2283C14.7343 24.638 14.3313 24.235 14.3313 23.741V14.498C14.3313 13.848 14.8383 13.341 15.4753 13.341C16.1123 13.341 16.6193 13.848 16.6193 14.498V17.124H18.9983V14.498C18.9983 13.848 19.5053 13.341 20.1423 13.341C20.7793 13.341 21.2863 13.848 21.2863 14.498V23.741C21.2863 24.235 20.8833 24.638 20.3893 24.638ZM22.9113 24.118V14.121C22.9113 13.458 23.4313 12.951 24.0813 12.951C24.7313 12.951 25.2513 13.458 25.2513 14.121V17.709H25.8883C26.4213 17.709 26.8633 18.138 26.8633 18.684C26.8633 19.23 26.4213 19.659 25.8883 19.659H25.2513V24.118C25.2513 24.794 24.7313 25.288 24.0813 25.288C23.4313 25.288 22.9113 24.794 22.9113 24.118ZM16.6193 22.74H18.9983V19.022H16.6193V22.74ZM29.6453 22.753C31.2703 22.753 32.9343 22.623 34.3383 22.272C34.4423 22.246 34.5203 22.233 34.6113 22.233C35.1443 22.233 35.5863 22.675 35.5863 23.208C35.5863 23.637 35.2613 24.04 34.8323 24.131C32.8693 24.586 30.9713 24.638 28.8783 24.638H28.2283C27.7343 24.638 27.3313 24.235 27.3313 23.741V17.163C27.3313 16.669 27.7343 16.266 28.2283 16.266H33.6233C34.1433 16.266 34.5463 16.669 34.5463 17.189C34.5463 17.709 34.1433 18.112 33.6233 18.112H29.6453V22.753ZM35.9113 24.118V14.121C35.9113 13.458 36.4313 12.951 37.0813 12.951C37.7313 12.951 38.2513 13.458 38.2513 14.121V17.657H38.8363C39.4083 17.657 39.8633 18.112 39.8633 18.684C39.8633 19.256 39.4083 19.711 38.8363 19.711H38.2513V24.118C38.2513 24.794 37.7313 25.288 37.0813 25.288C36.4313 25.288 35.9113 24.794 35.9113 24.118ZM27.2663 14.42C27.2663 13.887 27.6823 13.471 28.2023 13.471H33.7273C34.2473 13.471 34.6763 13.9 34.6763 14.42C34.6763 14.927 34.2473 15.356 33.7273 15.356H28.2023C27.6823 15.356 27.2663 14.94 27.2663 14.42ZM50.2867 20.036H45.1257C44.6317 20.036 44.2287 19.633 44.2287 19.139V14.173C44.2287 13.679 44.6317 13.276 45.1257 13.276H50.2867C50.7807 13.276 51.1837 13.679 51.1837 14.173V19.139C51.1837 19.633 50.7807 20.036 50.2867 20.036ZM44.7747 24.053V21.804C44.7747 21.154 45.2947 20.764 45.9447 20.764C46.5947 20.764 47.1147 21.154 47.1147 21.804V23.338H54.6287C55.1357 23.338 55.5387 23.741 55.5387 24.248C55.5387 24.755 55.1357 25.158 54.6287 25.158H45.8797C45.3077 25.158 44.7747 24.729 44.7747 24.053ZM52.8087 20.959V14.121C52.8087 13.458 53.3287 12.951 53.9787 12.951C54.6287 12.951 55.1487 13.458 55.1487 14.121V16.266H55.8507C56.3577 16.266 56.7607 16.669 56.7607 17.176C56.7607 17.683 56.3577 18.086 55.8507 18.086H55.1487V20.959C55.1487 21.635 54.6287 22.129 53.9787 22.129C53.3287 22.129 52.8087 21.635 52.8087 20.959ZM46.5167 15.044V18.268H48.8957V15.044H46.5167ZM59.7377 14.797V15.408H67.8107C68.2527 15.408 68.6037 15.759 68.6037 16.201C68.6037 16.643 68.2527 16.994 67.8107 16.994H58.2167C57.8137 16.994 57.4237 16.682 57.4237 16.201V14.004C57.4237 13.549 57.7877 13.211 58.2167 13.211H67.7457C68.1877 13.211 68.5387 13.562 68.5387 14.004C68.5387 14.446 68.1877 14.797 67.7457 14.797H59.7377ZM56.9687 18.476C56.9687 18.008 57.3327 17.644 57.7877 17.644H68.0967C68.5647 17.644 68.9287 18.008 68.9287 18.476C68.9287 18.918 68.5647 19.282 68.0967 19.282H57.7877C57.3327 19.282 56.9687 18.918 56.9687 18.476ZM67.7977 23.169H59.7637V23.65H67.9797C68.4087 23.65 68.7337 23.975 68.7337 24.404C68.7337 24.833 68.4087 25.158 67.9797 25.158H58.1777C57.7487 25.158 57.4237 24.833 57.4237 24.404V22.493C57.4237 22.116 57.7227 21.817 58.0997 21.817H66.1337V21.349H58.0737C57.6707 21.349 57.3587 21.037 57.3587 20.634C57.3587 20.231 57.6707 19.919 58.0737 19.919H67.7587C68.1617 19.919 68.4737 20.231 68.4737 20.634V22.493C68.4737 22.87 68.1747 23.169 67.7977 23.169ZM79.1727 24.118V14.121C79.1727 13.458 79.6927 12.951 80.3427 12.951C80.9927 12.951 81.5127 13.458 81.5127 14.121V24.118C81.5127 24.794 80.9927 25.288 80.3427 25.288C79.6927 25.288 79.1727 24.794 79.1727 24.118ZM69.9687 23.559C69.9687 23.13 70.2027 22.753 70.5667 22.571C73.8167 20.959 75.2337 18.463 75.2337 15.421H71.1257C70.5927 15.421 70.1637 14.992 70.1637 14.459C70.1637 13.9 70.5927 13.471 71.1257 13.471H76.6637C77.1707 13.471 77.5737 13.874 77.5737 14.381V15.096C77.5737 18.541 76.3127 22.337 71.5937 24.521C71.4247 24.599 71.2167 24.638 71.0217 24.638C70.4237 24.638 69.9687 24.144 69.9687 23.559Z" fill="white"/>
</svg>
