<svg width="83" height="58" viewBox="0 0 83 58" fill="none" xmlns="http://www.w3.org/2000/svg">
<mask id="path-1-inside-1_572_2094" fill="white">
<path d="M0 0H83V58H0V0Z"/>
</mask>
<path d="M83 57H0V59H83V57Z" fill="white" fill-opacity="0.4" mask="url(#path-1-inside-1_572_2094)"/>
<path d="M7.01227 24.741C7.01227 25.235 6.60927 25.638 6.11527 25.638H6.03727H2.22827C1.73427 25.638 1.33127 25.235 1.33127 24.741V24.663V15.29C1.33127 14.679 1.85127 14.211 2.44927 14.211C3.03427 14.211 3.56727 14.679 3.56727 15.29V18.15H4.77627V15.29C4.77627 14.679 5.29627 14.211 5.89427 14.211C6.47927 14.211 7.01227 14.679 7.01227 15.29V18.722H7.80527V15.134C7.80527 14.51 8.31227 14.016 8.92327 14.016C9.56027 14.016 10.0543 14.51 10.0543 15.134V25.105C10.0543 25.742 9.56027 26.223 8.92327 26.223C8.31227 26.223 7.80527 25.742 7.80527 25.105V20.646H7.01227V24.741ZM10.6003 25.157V15.082C10.6003 14.445 11.1073 13.951 11.7313 13.951C12.3683 13.951 12.8753 14.445 12.8753 15.082V25.157C12.8753 25.807 12.3683 26.288 11.7313 26.288C11.1073 26.288 10.6003 25.807 10.6003 25.157ZM3.56727 20.022V23.74H4.77627V20.022H3.56727ZM15.2283 19.45C17.3343 19.008 18.8813 17.344 18.8813 15.706V14.939C18.8813 14.419 19.4013 13.951 20.0773 13.951C20.7273 13.951 21.2213 14.419 21.2213 14.939V15.706C21.2213 17.344 22.7683 19.008 24.8743 19.45C25.3683 19.554 25.7063 19.957 25.7063 20.451C25.7063 20.997 25.2643 21.465 24.7183 21.465C24.6273 21.465 24.5233 21.452 24.4583 21.439C22.4303 21.036 20.8963 20.009 20.0513 18.54C19.2063 20.009 17.6593 21.036 15.6443 21.439C15.5793 21.452 15.4753 21.465 15.3843 21.465C14.8383 21.465 14.3963 20.997 14.3963 20.451C14.3963 19.957 14.7343 19.554 15.2283 19.45ZM14.0713 24.858C14.0713 24.325 14.5263 23.883 15.0593 23.883H25.0303C25.5893 23.883 26.0313 24.325 26.0313 24.858C26.0313 25.378 25.5893 25.833 25.0303 25.833H15.0593C14.5263 25.833 14.0713 25.378 14.0713 24.858ZM27.0713 24.871C27.0713 24.338 27.5263 23.909 28.0593 23.909H38.0303C38.5893 23.909 39.0313 24.338 39.0313 24.871C39.0313 25.391 38.5893 25.833 38.0303 25.833H28.0593C27.5263 25.833 27.0713 25.391 27.0713 24.871ZM38.4463 17.981C38.4463 18.462 38.0563 18.878 37.5753 18.878H29.8663V20.022H37.8353C38.3293 20.022 38.7063 20.438 38.7063 20.932C38.7063 21.426 38.3293 21.842 37.8353 21.842H28.4233C27.9293 21.842 27.5263 21.439 27.5263 20.945V18.007C27.5263 17.513 27.9163 17.11 28.4233 17.11H37.5753C38.0563 17.11 38.4463 17.5 38.4463 17.981ZM28.3583 14.406H37.7443C38.2383 14.406 38.6413 14.822 38.6413 15.316C38.6413 15.81 38.2383 16.226 37.7443 16.226H28.3583C27.8643 16.226 27.4613 15.81 27.4613 15.316C27.4613 14.822 27.8643 14.406 28.3583 14.406ZM43.9687 24.858C43.9687 24.325 44.4237 23.883 44.9567 23.883H54.9277C55.4867 23.883 55.9287 24.325 55.9287 24.858C55.9287 25.378 55.4867 25.833 54.9277 25.833H44.9567C44.4237 25.833 43.9687 25.378 43.9687 24.858ZM54.6287 21.257H45.3207C44.8267 21.257 44.4237 20.854 44.4237 20.36V15.303C44.4237 14.809 44.8267 14.406 45.3207 14.406H54.4987C55.0447 14.406 55.4737 14.835 55.4737 15.381C55.4737 15.927 55.0447 16.356 54.4987 16.356H46.7637V19.307H54.6287C55.1747 19.307 55.6037 19.736 55.6037 20.282C55.6037 20.828 55.1747 21.257 54.6287 21.257ZM62.0907 15.368V19.84C62.0907 20.347 61.6877 20.75 61.1807 20.75H59.4907V23.727C60.3227 23.727 61.1287 23.597 61.8567 23.35C61.9737 23.311 62.1167 23.272 62.2467 23.272C62.7667 23.272 63.1957 23.714 63.1957 24.234C63.1957 24.676 62.8837 25.027 62.4677 25.157C61.2197 25.547 59.9587 25.638 58.7757 25.638H58.1257C57.6317 25.638 57.2287 25.235 57.2287 24.741V19.801C57.2287 19.307 57.6317 18.904 58.1257 18.904H59.8287V16.382H58.0997C57.5797 16.382 57.1637 15.953 57.1637 15.433C57.1637 14.9 57.5797 14.471 58.0997 14.471H61.1937C61.6877 14.471 62.0907 14.874 62.0907 15.368ZM63.6767 25.105V20.308H63.1957C62.6237 20.308 62.3637 19.918 62.3637 19.346C62.3637 18.774 62.6237 18.384 63.1957 18.384H63.6767V15.134C63.6767 14.51 64.1837 14.016 64.7947 14.016C65.4317 14.016 65.9257 14.51 65.9257 15.134V25.105C65.9257 25.742 65.4317 26.223 64.7947 26.223C64.1837 26.223 63.6767 25.742 63.6767 25.105ZM66.4977 25.157V15.082C66.4977 14.445 67.0047 13.951 67.6287 13.951C68.2657 13.951 68.7727 14.445 68.7727 15.082V25.157C68.7727 25.807 68.2657 26.288 67.6287 26.288C67.0047 26.288 66.4977 25.807 66.4977 25.157ZM69.8387 24.663C69.8387 24.286 69.9817 23.961 70.2287 23.753C71.9447 22.336 72.7637 20.334 72.7637 16.928V15.251C72.7637 14.601 73.2837 14.081 73.9337 14.081C74.5837 14.081 75.1037 14.601 75.1037 15.251V16.928C75.1037 20.334 75.9097 22.284 77.6257 23.701C77.8727 23.909 78.0287 24.221 78.0287 24.598C78.0287 25.222 77.5737 25.703 76.9237 25.703C76.6247 25.703 76.3387 25.612 76.1437 25.443C75.1167 24.559 74.4017 23.597 73.9337 22.206C73.4787 23.623 72.7507 24.624 71.7237 25.508C71.5287 25.677 71.2427 25.768 70.9437 25.768C70.2937 25.768 69.8387 25.287 69.8387 24.663ZM79.3027 25.118V20.256H77.4827C76.9107 20.256 76.4557 19.801 76.4557 19.229C76.4557 18.657 76.9107 18.202 77.4827 18.202H79.3027V15.121C79.3027 14.458 79.8227 13.951 80.4727 13.951C81.1227 13.951 81.6427 14.458 81.6427 15.121V25.118C81.6427 25.794 81.1227 26.288 80.4727 26.288C79.8227 26.288 79.3027 25.794 79.3027 25.118ZM16.02 36.932C16.02 36.425 16.436 36.009 16.93 36.009H20.232V34.488H17.45C16.943 34.488 16.54 34.137 16.54 33.617C16.54 33.11 16.943 32.746 17.45 32.746H25.094C25.107 32.408 25.12 32.135 25.12 32.031H17.32C16.813 32.031 16.41 31.641 16.41 31.121C16.41 30.614 16.813 30.211 17.32 30.211H26.563C27.057 30.211 27.46 30.614 27.46 31.108C27.46 31.823 27.395 34.02 27.148 34.93C26.992 35.502 26.498 35.684 26.017 35.684C25.341 35.684 24.886 35.242 24.886 34.657C24.886 34.618 24.886 34.553 24.899 34.488H22.572V36.009H27.057C27.577 36.009 27.98 36.425 27.98 36.932C27.98 37.413 27.577 37.829 27.057 37.829H16.93C16.436 37.829 16.02 37.413 16.02 36.932ZM16.475 41.053V39.376C16.475 38.726 16.995 38.336 17.645 38.336C18.295 38.336 18.815 38.726 18.815 39.376V40.338H26.875C27.382 40.338 27.785 40.741 27.785 41.248C27.785 41.755 27.382 42.158 26.875 42.158H17.58C17.008 42.158 16.475 41.729 16.475 41.053ZM31.542 35.047V39.727C32.387 39.727 33.193 39.584 33.908 39.35C34.025 39.311 34.155 39.272 34.298 39.272C34.818 39.272 35.247 39.714 35.247 40.234C35.247 40.676 34.935 41.027 34.519 41.157C33.271 41.547 32.01 41.638 30.827 41.638H30.177C29.683 41.638 29.28 41.235 29.28 40.741V34.098C29.28 33.604 29.683 33.201 30.177 33.201H33.778C34.298 33.201 34.701 33.604 34.701 34.124C34.701 34.644 34.298 35.047 33.778 35.047H31.542ZM35.728 41.105V38.024H34.233C33.726 38.024 33.323 37.595 33.323 37.088C33.323 36.581 33.726 36.152 34.233 36.152H35.728V31.134C35.728 30.51 36.235 30.016 36.846 30.016C37.483 30.016 37.977 30.51 37.977 31.134V41.105C37.977 41.742 37.483 42.223 36.846 42.223C36.235 42.223 35.728 41.742 35.728 41.105ZM38.549 41.157V31.082C38.549 30.445 39.056 29.951 39.68 29.951C40.317 29.951 40.824 30.445 40.824 31.082V41.157C40.824 41.807 40.317 42.288 39.68 42.288C39.056 42.288 38.549 41.807 38.549 41.157ZM30.164 30.471H33.869C34.402 30.471 34.831 30.9 34.831 31.433C34.831 31.953 34.402 32.382 33.869 32.382H30.164C29.631 32.382 29.215 31.966 29.215 31.433C29.215 30.887 29.631 30.471 30.164 30.471ZM43.177 35.45C45.283 35.008 46.83 33.344 46.83 31.706V30.939C46.83 30.419 47.35 29.951 48.026 29.951C48.676 29.951 49.17 30.419 49.17 30.939V31.706C49.17 33.344 50.717 35.008 52.823 35.45C53.317 35.554 53.655 35.957 53.655 36.451C53.655 36.997 53.213 37.465 52.667 37.465C52.576 37.465 52.472 37.452 52.407 37.439C50.379 37.036 48.845 36.009 48 34.54C47.155 36.009 45.608 37.036 43.593 37.439C43.528 37.452 43.424 37.465 43.333 37.465C42.787 37.465 42.345 36.997 42.345 36.451C42.345 35.957 42.683 35.554 43.177 35.45ZM42.02 40.858C42.02 40.325 42.475 39.883 43.008 39.883H52.979C53.538 39.883 53.98 40.325 53.98 40.858C53.98 41.378 53.538 41.833 52.979 41.833H43.008C42.475 41.833 42.02 41.378 42.02 40.858ZM55.02 40.871C55.02 40.338 55.475 39.909 56.008 39.909H65.979C66.538 39.909 66.98 40.338 66.98 40.871C66.98 41.391 66.538 41.833 65.979 41.833H56.008C55.475 41.833 55.02 41.391 55.02 40.871ZM66.395 33.981C66.395 34.462 66.005 34.878 65.524 34.878H57.815V36.022H65.784C66.278 36.022 66.655 36.438 66.655 36.932C66.655 37.426 66.278 37.842 65.784 37.842H56.372C55.878 37.842 55.475 37.439 55.475 36.945V34.007C55.475 33.513 55.865 33.11 56.372 33.11H65.524C66.005 33.11 66.395 33.5 66.395 33.981ZM56.307 30.406H65.693C66.187 30.406 66.59 30.822 66.59 31.316C66.59 31.81 66.187 32.226 65.693 32.226H56.307C55.813 32.226 55.41 31.81 55.41 31.316C55.41 30.822 55.813 30.406 56.307 30.406Z" fill="#BBD2FF"/>
</svg>
