<svg width="83" height="38" viewBox="0 0 83 38" fill="none" xmlns="http://www.w3.org/2000/svg">
<path d="M13.8893 18.334H8.72827C8.23427 18.334 7.83127 17.931 7.83127 17.437V13.173C7.83127 12.679 8.23427 12.276 8.72827 12.276H13.8893C14.3833 12.276 14.7863 12.679 14.7863 13.173V13.238H16.9053V13.121C16.9053 12.458 17.4253 11.951 18.0753 11.951C18.7253 11.951 19.2453 12.458 19.2453 13.121V17.918C19.2453 18.594 18.7253 19.088 18.0753 19.088C17.4253 19.088 16.9053 18.594 16.9053 17.918V17.398H14.7863V17.437C14.7863 17.931 14.3833 18.334 13.8893 18.334ZM10.7303 24.158C9.36527 24.158 8.24727 23.092 8.24727 21.727C8.24727 20.349 9.36527 19.283 10.7303 19.283H16.8793C18.2573 19.283 19.3753 20.349 19.3753 21.727C19.3753 23.092 18.2573 24.158 16.8793 24.158H10.7303ZM10.5613 21.727C10.5613 22.117 10.8603 22.39 11.2503 22.39H16.3593C16.7493 22.39 17.0613 22.117 17.0613 21.727C17.0613 21.337 16.7493 21.051 16.3593 21.051H11.2503C10.8603 21.051 10.5613 21.337 10.5613 21.727ZM10.1193 14.044V16.566H12.4983V14.044H10.1193ZM14.7863 14.941V15.695H16.9053V14.941H14.7863ZM20.8313 21.415V14.694C20.8313 13.147 22.1833 12.276 23.7303 12.276C25.2773 12.276 26.5123 13.147 26.5123 14.694V14.967H27.3053V13.134C27.3053 12.51 27.8123 12.016 28.4233 12.016C29.0603 12.016 29.5543 12.51 29.5543 13.134V23.105C29.5543 23.742 29.0603 24.223 28.4233 24.223C27.8123 24.223 27.3053 23.742 27.3053 23.105V20.947H26.5123V21.415C26.5123 22.962 25.2773 23.833 23.7303 23.833C22.1833 23.833 20.8313 22.962 20.8313 21.415ZM30.1003 23.157V13.082C30.1003 12.445 30.6073 11.951 31.2313 11.951C31.8683 11.951 32.3753 12.445 32.3753 13.082V23.157C32.3753 23.807 31.8683 24.288 31.2313 24.288C30.6073 24.288 30.1003 23.807 30.1003 23.157ZM23.0673 14.733V21.376C23.0673 21.753 23.3533 22.039 23.7303 22.039C24.1073 22.039 24.3933 21.753 24.3933 21.376V14.733C24.3933 14.356 24.1073 14.07 23.7303 14.07C23.3533 14.07 23.0673 14.356 23.0673 14.733ZM26.5123 16.787V19.127H27.3053V16.787H26.5123ZM34.0783 17.06V15.071C34.0783 13.147 35.8073 12.081 37.8613 12.081C39.9153 12.081 41.6963 13.147 41.6963 15.071V17.06C41.6963 18.984 39.9283 20.037 37.8743 20.037C35.8203 20.037 34.0783 18.984 34.0783 17.06ZM36.3663 15.097V17.034C36.3663 17.723 37.0033 18.139 37.8743 18.139C38.7453 18.139 39.4083 17.723 39.4083 17.034V15.097C39.4083 14.408 38.7453 13.966 37.8743 13.966C37.0033 13.966 36.3663 14.408 36.3663 15.097ZM34.5463 23.703C34.0003 23.703 33.5713 23.274 33.5713 22.728C33.5713 22.182 34.0003 21.753 34.5463 21.753C36.9123 21.753 39.2913 21.675 41.2933 21.337C41.3713 21.324 41.4233 21.311 41.4883 21.311C42.0343 21.311 42.4633 21.74 42.4633 22.286C42.4633 22.793 42.1383 23.157 41.6053 23.248C39.6293 23.586 37.0683 23.703 34.5463 23.703ZM42.7753 23.118V13.121C42.7753 12.458 43.2953 11.951 43.9453 11.951C44.5953 11.951 45.1153 12.458 45.1153 13.121V23.118C45.1153 23.794 44.5953 24.288 43.9453 24.288C43.2953 24.288 42.7753 23.794 42.7753 23.118ZM50.5987 18.594C50.5987 18.074 50.8717 17.749 51.2227 17.606C52.4057 17.125 53.3157 15.89 53.3157 14.447V14.122H51.5737C51.0667 14.122 50.6637 13.745 50.6637 13.212C50.6637 12.653 51.0667 12.276 51.5737 12.276H57.3977C57.9567 12.276 58.3337 12.653 58.3337 13.212C58.3337 13.745 57.9567 14.122 57.3977 14.122H55.6557V14.447C55.6557 15.838 56.5657 16.995 57.7487 17.476C58.0997 17.619 58.3727 17.944 58.3727 18.464C58.3727 19.049 57.9437 19.504 57.3327 19.504C57.1637 19.504 56.9817 19.465 56.8257 19.4C55.9287 19.036 55.0707 18.373 54.4987 17.359C53.9397 18.438 53.0557 19.153 52.1457 19.53C51.9897 19.595 51.8077 19.634 51.6387 19.634C51.0277 19.634 50.5987 19.179 50.5987 18.594ZM59.8027 20.219V16.657H58.2557C57.7487 16.657 57.3457 16.254 57.3457 15.747C57.3457 15.24 57.7487 14.837 58.2557 14.837H59.8027V13.121C59.8027 12.458 60.3227 11.951 60.9727 11.951C61.6227 11.951 62.1427 12.458 62.1427 13.121V20.219C62.1427 20.895 61.6227 21.389 60.9727 21.389C60.3227 21.389 59.8027 20.895 59.8027 20.219ZM51.2747 23.053V21.129C51.2747 20.479 51.7947 20.089 52.4447 20.089C53.0947 20.089 53.6147 20.479 53.6147 21.129V22.338H61.4927C61.9997 22.338 62.4027 22.741 62.4027 23.248C62.4027 23.755 61.9997 24.158 61.4927 24.158H52.3797C51.8077 24.158 51.2747 23.729 51.2747 23.053ZM72.2827 24.158H66.6277C65.2627 24.158 64.1447 23.092 64.1447 21.727C64.1447 20.349 65.2627 19.283 66.6277 19.283H72.2827C73.6607 19.283 74.7787 20.349 74.7787 21.727C74.7787 23.092 73.6607 24.158 72.2827 24.158ZM63.7287 17.437V13.173C63.7287 12.679 64.1317 12.276 64.6257 12.276H69.9167C70.4107 12.276 70.8137 12.679 70.8137 13.173C70.8137 13.667 70.4107 14.07 69.9167 14.07H66.0427V16.54C67.7847 16.54 69.4227 16.397 70.8527 16.046C70.9047 16.033 71.0087 16.02 71.0867 16.02C71.5807 16.02 71.9837 16.423 71.9837 16.917C71.9837 17.333 71.6847 17.684 71.3077 17.775C69.4747 18.217 67.6157 18.334 65.2757 18.334H64.6257C64.1317 18.334 63.7287 17.931 63.7287 17.437ZM72.3087 17.918V13.121C72.3087 12.458 72.8287 11.951 73.4787 11.951C74.1287 11.951 74.6487 12.458 74.6487 13.121V14.486H75.3507C75.8577 14.486 76.2607 14.889 76.2607 15.396C76.2607 15.903 75.8577 16.306 75.3507 16.306H74.6487V17.918C74.6487 18.594 74.1287 19.088 73.4787 19.088C72.8287 19.088 72.3087 18.594 72.3087 17.918ZM66.4587 21.727C66.4587 22.117 66.7577 22.39 67.1477 22.39H71.7627C72.1527 22.39 72.4647 22.117 72.4647 21.727C72.4647 21.337 72.1527 21.051 71.7627 21.051H67.1477C66.7577 21.051 66.4587 21.337 66.4587 21.727Z" fill="#BBD2FF"/>
</svg>
