<svg width="24" height="24" viewBox="0 0 24 24" fill="none" xmlns="http://www.w3.org/2000/svg">
<path fill-rule="evenodd" clip-rule="evenodd" d="M3.43896 18.4402C2.85368 19.0255 2.85368 19.9744 3.43896 20.5597C4.02423 21.1449 4.97315 21.1449 5.55842 20.5597L11.9996 14.1185L18.4407 20.5597C19.026 21.1449 19.9749 21.1449 20.5602 20.5597C21.1455 19.9744 21.1455 19.0255 20.5602 18.4402L14.1191 11.999L20.5602 5.55794C21.1454 4.97266 21.1454 4.02374 20.5602 3.43847C19.9749 2.85319 19.026 2.85319 18.4407 3.43847L11.9996 9.87957L5.55848 3.43847C4.9732 2.85319 4.02429 2.85319 3.43901 3.43847C2.85374 4.02374 2.85374 4.97266 3.43901 5.55794L9.88012 11.999L3.43896 18.4402Z" fill="white"/>
</svg>
