<svg width="24" height="24" viewBox="0 0 24 24" fill="none" xmlns="http://www.w3.org/2000/svg">
<path fill-rule="evenodd" clip-rule="evenodd" d="M2 4.5C2 3.67157 2.67157 3 3.5 3H20.5C21.3284 3 22 3.67157 22 4.5C22 5.32843 21.3284 6 20.5 6H3.5C2.67157 6 2 5.32843 2 4.5ZM2 12.5C2 11.6716 2.67157 11 3.5 11H20.5C21.3284 11 22 11.6716 22 12.5C22 13.3284 21.3284 14 20.5 14H3.5C2.67157 14 2 13.3284 2 12.5ZM3.5 19C2.67157 19 2 19.6716 2 20.5C2 21.3284 2.67157 22 3.5 22H20.5C21.3284 22 22 21.3284 22 20.5C22 19.6716 21.3284 19 20.5 19H3.5Z" fill="white"/>
</svg>
