<svg width="285" height="56" viewBox="0 0 285 56" fill="none" xmlns="http://www.w3.org/2000/svg">
<path d="M204 19.3828V36.616H200.171L197.088 27.894V36.616H193.259V19.3828H197.088L200.171 28.1815V19.3828H204Z" fill="#636363"/>
<path d="M181.087 33.0128V22.9872C181.087 20.0543 183.48 19 186.41 19C189.339 19 191.732 20.0543 191.732 22.9872V33.0128C191.732 35.9457 189.339 37 186.41 37C183.48 37 181.087 35.9457 181.087 33.0128ZM185.069 23.6198V32.3802C185.069 33.1278 185.663 33.5304 186.41 33.5304C187.156 33.5304 187.75 33.1278 187.75 32.3802V23.6198C187.75 22.8722 187.156 22.4696 186.41 22.4696C185.663 22.4696 185.069 22.8722 185.069 23.6198Z" fill="#636363"/>
<path d="M168.915 33.0128V22.9872C168.915 20.0543 171.308 19 174.238 19C177.167 19 179.56 20.0543 179.56 22.9872V33.0128C179.56 35.9457 177.167 37 174.238 37C171.308 37 168.915 35.9457 168.915 33.0128ZM172.897 23.6198V32.3802C172.897 33.1278 173.491 33.5304 174.238 33.5304C174.984 33.5304 175.578 33.1278 175.578 32.3802V23.6198C175.578 22.8722 174.984 22.4696 174.238 22.4696C173.491 22.4696 172.897 22.8722 172.897 23.6198Z" fill="#636363"/>
<path d="M160.928 23.524V24.3099C160.928 24.9042 161.272 25.2492 162.766 25.7668C167.591 27.5112 167.591 28.7572 167.591 31.9776V33.0128C167.591 35.9457 165.102 37 162.172 37C159.243 37 156.85 35.9457 156.85 33.0128V30.4249H160.966V32.3802C160.966 33.1278 161.521 33.5304 162.268 33.5304C163.015 33.5304 163.57 33.1278 163.57 32.3802V31.9776C163.57 29.8115 163.474 29.7157 160.047 28.393C157.386 27.377 156.907 25.6709 156.907 24.3099V22.9872C156.907 20.0543 159.3 19 162.23 19C165.159 19 167.552 20.0543 167.552 22.9872V24.8275H163.532V23.6198C163.532 22.8722 162.976 22.4696 162.23 22.4696C161.483 22.4696 160.928 22.7764 160.928 23.524Z" fill="#636363"/>
<path d="M144.794 30.5208V27.3578H150.021V33.0128C150.021 35.9457 147.628 37 144.699 37C141.769 37 139.28 35.9457 139.28 33.0128V22.9872C139.28 20.0543 141.674 19 144.603 19C147.532 19 149.926 20.0543 149.926 22.9872V24.9617H145.905V23.6198C145.905 22.8722 145.35 22.4696 144.603 22.4696C143.856 22.4696 143.301 22.8722 143.301 23.6198V32.3802C143.301 33.1278 143.952 33.5304 144.699 33.5304C145.445 33.5304 146.096 33.1278 146.096 32.3802V30.5208H144.794Z" fill="#636363"/>
<path d="M137.755 19.3828V36.616H133.925L130.843 27.894V36.616H127.014V19.3828H130.843L133.925 28.1815V19.3828H137.755Z" fill="#636363"/>
<path d="M125.486 19.3828V36.616H121.273V19.3828H125.486Z" fill="#636363"/>
<path d="M105.063 36.616V19.3828H110.29L112.454 30.4819L114.694 19.3828H119.749V36.616H115.919V27.2231L113.947 36.616H110.98L108.893 27.2231V36.616H105.063Z" fill="#636363"/>
<path d="M92.8916 33.0128V22.9872C92.8916 20.0543 95.2849 19 98.2142 19C101.144 19 103.537 20.0543 103.537 22.9872V33.0128C103.537 35.9457 101.144 37 98.2142 37C95.2849 37 92.8916 35.9457 92.8916 33.0128ZM96.874 23.6198V32.3802C96.874 33.1278 97.4675 33.5304 98.2142 33.5304C98.9609 33.5304 99.5544 33.1278 99.5544 32.3802V23.6198C99.5544 22.8722 98.9609 22.4696 98.2142 22.4696C97.4675 22.4696 96.874 22.8722 96.874 23.6198Z" fill="#636363"/>
<path d="M87.6246 30.4249H91.741V33.0128C91.741 35.9457 89.3477 37 86.4184 37C83.489 37 81 35.9457 81 33.0128V22.9872C81 20.0543 83.3933 19 86.3226 19C89.252 19 91.6452 20.0543 91.6452 22.9872V24.9617H87.6246V23.6198C87.6246 22.8722 87.0693 22.4696 86.3226 22.4696C85.5759 22.4696 85.0207 22.8722 85.0207 23.6198V32.3802C85.0207 33.1278 85.5759 33.5304 86.3226 33.5304C87.0693 33.5304 87.6246 33.1278 87.6246 32.3802V30.4249Z" fill="#636363"/>
</svg>
