<svg width="616" height="41" viewBox="0 0 616 41" fill="none" xmlns="http://www.w3.org/2000/svg">
<rect width="146" height="41" rx="20.5" fill="#3165C6"/>
<path d="M21.2 25.08V16.98C21.2 14.04 23.74 12.04 26.84 12.04C29.96 12.04 32.52 14.04 32.52 16.98V25.08C32.52 28.02 29.96 30.02 26.84 30.02C23.74 30.02 21.2 28.02 21.2 25.08ZM34.48 30.32V11.74H38.98V30.32H34.48ZM25.46 16.78V25.28C25.46 25.98 26.04 26.64 26.9 26.64C27.76 26.64 28.36 25.98 28.36 25.28V16.78C28.36 16.12 27.76 15.4 26.9 15.4C26.04 15.4 25.46 16.12 25.46 16.78ZM41.2 23.08V11.94H44.68V14.18H46.5V11.94H49.84V15.84H51.34V11.74H54.84V25.52H51.34V19.24H49.84V23.08H41.2ZM59.5 27.04V30.32H42.04V24.08H46.5V27.04H59.5ZM55.62 25.52V11.74H59.2V25.52H55.62ZM44.68 17.46V19.8H46.5V17.46H44.68ZM60.8 30.02V26.5H79.2V30.02H60.8ZM78.7 20.4V23.7H61.5V16.12H78.42V19.26H65.96V20.4H78.7ZM61.5 15.28V12.04H78.5V15.28H61.5ZM100.476 21.7V11.74H104.976V21.7H100.476ZM88.0361 24.36V22.1H104.976V27.2H92.4561V27.96H105.276V30.32H88.0361V25.08H100.556V24.36H88.0361ZM87.1961 17.02V16.1C87.1961 13.16 89.7361 11.74 92.8561 11.74C95.9561 11.74 98.4961 13.16 98.4961 16.1V17.02C98.4961 19.92 95.9561 21.32 92.8561 21.32C89.7361 21.32 87.1961 19.92 87.1961 17.02ZM91.5161 15.76V17.36C91.5161 18.06 92.0761 18.56 92.8561 18.56C93.5961 18.56 94.1961 18.06 94.1961 17.36V15.76C94.1961 15.06 93.5961 14.5 92.8561 14.5C92.0761 14.5 91.5161 15.06 91.5161 15.76ZM117.696 18.74V15.72H120.576V11.74H124.996V22.78H120.576V18.74H117.696ZM107.196 15.22V12.04H118.716V15.22H114.936C114.956 17.9 116.616 19.2 118.916 19.36V22.62C116.296 22.56 114.256 21.76 112.956 19.96C111.616 21.76 109.576 22.56 106.996 22.62V19.36C109.316 19.2 110.976 17.9 110.976 15.22H107.196ZM107.836 26.8C107.836 24.66 109.556 23.18 111.716 23.18H121.276C123.476 23.18 125.196 24.66 125.196 26.8C125.196 28.88 123.476 30.42 121.276 30.42H111.716C109.556 30.42 107.836 28.88 107.836 26.8ZM113.016 27.44H119.956C120.516 27.44 120.796 27.18 120.796 26.8C120.796 26.36 120.516 26.14 119.956 26.14H113.016C112.536 26.14 112.256 26.36 112.256 26.8C112.256 27.18 112.536 27.44 113.016 27.44Z" fill="#CDCDCD"/>
<path d="M177.172 15.67V14.79C177.172 14.086 176.82 13.514 176.116 13.514C175.412 13.514 175.06 14.086 175.06 14.79V16.396H170.66V14.79C170.66 11.666 173.014 9.994 176.116 9.994C179.218 9.994 181.792 11.666 181.792 14.79V15.67C181.792 18.398 180.692 19.762 178.338 22.292C175.962 24.844 175.28 25.328 175.28 26.406V26.802H181.792V30.322H170.44V26.406C170.44 24.8 170.594 23.59 174.444 20.202C176.798 18.156 177.172 17.078 177.172 15.67ZM183.105 26.076V14.79C183.105 11.666 185.679 9.994 188.781 9.994C191.883 9.994 194.457 11.666 194.457 14.79V26.076C194.457 29.2 191.883 30.872 188.781 30.872C185.679 30.872 183.105 29.2 183.105 26.076ZM187.505 14.79V26.076C187.505 26.78 188.077 27.352 188.781 27.352C189.485 27.352 190.057 26.78 190.057 26.076V14.79C190.057 14.086 189.485 13.514 188.781 13.514C188.077 13.514 187.505 14.086 187.505 14.79ZM202.502 15.67V14.79C202.502 14.086 202.15 13.514 201.446 13.514C200.742 13.514 200.39 14.086 200.39 14.79V16.396H195.99V14.79C195.99 11.666 198.344 9.994 201.446 9.994C204.548 9.994 207.122 11.666 207.122 14.79V15.67C207.122 18.398 206.022 19.762 203.668 22.292C201.292 24.844 200.61 25.328 200.61 26.406V26.802H207.122V30.322H195.77V26.406C195.77 24.8 195.924 23.59 199.774 20.202C202.128 18.156 202.502 17.078 202.502 15.67ZM212.373 10.434H218.819V23.92H220.359V27.66H218.819V30.432H214.661V27.66H207.775V23.92L212.373 10.434ZM214.639 23.92V15.274L211.911 23.92H214.639ZM231.381 14.746V11.754H236.397V10.214H241.259V25.218H236.397V18.684H231.381V15.692H236.397V14.746H231.381ZM221.679 23.612V10.434H226.519V19.718L235.627 19.388V23.04L221.679 23.612ZM241.589 27.044V30.652H222.603V24.536H227.509V27.044H241.589ZM253.949 21.412V17.892L255.401 17.782C256.061 17.716 256.787 17.21 256.787 16.506V14.57C256.787 13.866 256.215 13.294 255.511 13.294C254.807 13.294 254.235 13.866 254.235 14.57V16.176H249.835V14.79C249.835 11.666 252.409 9.994 255.511 9.994C258.613 9.994 261.187 11.666 261.187 14.79V16.286C261.187 17.958 260.527 18.992 259.471 19.63C260.637 20.268 261.407 21.324 261.407 23.018V26.076C261.407 29.2 258.613 30.872 255.511 30.872C252.409 30.872 249.615 29.2 249.615 26.076V23.678H254.235V26.076C254.235 26.78 254.807 27.352 255.511 27.352C256.215 27.352 256.787 26.78 256.787 26.076V22.798C256.787 22.094 255.995 21.522 255.291 21.522L253.949 21.412ZM262.941 20.576V17.672H277.571V20.576H271.917L271.631 22.16H282.939V27.418H268.925V28.232H283.159V30.652H264.305V25.284H278.319V24.536H264.305V22.16H267.187L267.473 20.576H262.941ZM263.381 13.8C263.381 11.952 264.811 10.434 266.857 10.434H272.489C274.513 10.434 275.987 11.952 275.987 13.8C275.987 15.648 274.513 17.144 272.489 17.144H266.857C264.811 17.144 263.381 15.648 263.381 13.8ZM276.339 15.89V12.48H278.099V10.214H282.939V21.61H278.099V15.89H276.339ZM267.517 13.844C267.517 14.196 267.781 14.504 268.067 14.504H271.345C271.631 14.504 271.895 14.196 271.895 13.844C271.895 13.492 271.631 13.184 271.345 13.184H268.067C267.781 13.184 267.517 13.492 267.517 13.844ZM297.74 30.432H293.12V15.978H290.876V12.678C292.108 12.678 293.472 11.6 293.472 10.434H297.74V30.432ZM303.445 10.434H309.891V23.92H311.431V27.66H309.891V30.432H305.733V27.66H298.847V23.92L303.445 10.434ZM305.711 23.92V15.274L302.983 23.92H305.711ZM327.36 21.17V10.214H332.31V21.17H327.36ZM313.676 24.096V21.61H332.31V27.22H318.538V28.056H332.64V30.652H313.676V24.888H327.448V24.096H313.676ZM312.752 16.022V15.01C312.752 11.776 315.546 10.214 318.978 10.214C322.388 10.214 325.182 11.776 325.182 15.01V16.022C325.182 19.212 322.388 20.752 318.978 20.752C315.546 20.752 312.752 19.212 312.752 16.022ZM317.504 14.636V16.396C317.504 17.166 318.12 17.716 318.978 17.716C319.792 17.716 320.452 17.166 320.452 16.396V14.636C320.452 13.866 319.792 13.25 318.978 13.25C318.12 13.25 317.504 13.866 317.504 14.636ZM336.072 9.422H342.122V13.382H340.274V27.418H342.122V31.378H336.072V9.422ZM344.427 17.628V10.214H363.127V17.628H356.087V19.322H363.897V22.732H343.657V19.322H351.445V17.628H344.427ZM344.317 26.912V23.898H363.127V30.872H358.375V26.912H344.317ZM349.069 13.074V14.768H358.485V13.074H349.069ZM365.437 9.422H371.487V31.356H365.437V27.396H367.285V13.382H365.437V9.422ZM384.459 22.776H381.599C382.171 18.772 384.107 17.386 385.867 17.386C387.187 17.386 387.605 17.562 389.189 18.332C390.575 19.014 391.279 19.432 392.049 19.586C392.951 19.74 393.325 19.322 393.567 17.54H396.427C395.965 21.764 394.249 22.908 392.291 22.908C390.905 22.908 390.003 22.644 388.617 21.962C387.495 21.412 386.725 20.884 385.955 20.95C385.295 21.016 384.811 21.104 384.459 22.776ZM411.072 15.67V14.79C411.072 14.086 410.72 13.514 410.016 13.514C409.312 13.514 408.96 14.086 408.96 14.79V16.396H404.56V14.79C404.56 11.666 406.914 9.994 410.016 9.994C413.118 9.994 415.692 11.666 415.692 14.79V15.67C415.692 18.398 414.592 19.762 412.238 22.292C409.862 24.844 409.18 25.328 409.18 26.406V26.802H415.692V30.322H404.34V26.406C404.34 24.8 404.494 23.59 408.344 20.202C410.698 18.156 411.072 17.078 411.072 15.67ZM417.005 26.076V14.79C417.005 11.666 419.579 9.994 422.681 9.994C425.783 9.994 428.357 11.666 428.357 14.79V26.076C428.357 29.2 425.783 30.872 422.681 30.872C419.579 30.872 417.005 29.2 417.005 26.076ZM421.405 14.79V26.076C421.405 26.78 421.977 27.352 422.681 27.352C423.385 27.352 423.957 26.78 423.957 26.076V14.79C423.957 14.086 423.385 13.514 422.681 13.514C421.977 13.514 421.405 14.086 421.405 14.79ZM436.402 15.67V14.79C436.402 14.086 436.05 13.514 435.346 13.514C434.642 13.514 434.29 14.086 434.29 14.79V16.396H429.89V14.79C429.89 11.666 432.244 9.994 435.346 9.994C438.448 9.994 441.022 11.666 441.022 14.79V15.67C441.022 18.398 439.922 19.762 437.568 22.292C435.192 24.844 434.51 25.328 434.51 26.406V26.802H441.022V30.322H429.67V26.406C429.67 24.8 429.824 23.59 433.674 20.202C436.028 18.156 436.402 17.078 436.402 15.67ZM446.273 10.434H452.719V23.92H454.259V27.66H452.719V30.432H448.561V27.66H441.675V23.92L446.273 10.434ZM448.539 23.92V15.274L445.811 23.92H448.539ZM465.282 14.746V11.754H470.298V10.214H475.16V25.218H470.298V18.684H465.282V15.692H470.298V14.746H465.282ZM455.58 23.612V10.434H460.42V19.718L469.528 19.388V23.04L455.58 23.612ZM475.49 27.044V30.652H456.504V24.536H461.41V27.044H475.49ZM489.939 30.432H485.319V15.978H483.075V12.678C484.307 12.678 485.671 11.6 485.671 10.434H489.939V30.432ZM497.998 15.67V14.79C497.998 14.086 497.646 13.514 496.942 13.514C496.238 13.514 495.886 14.086 495.886 14.79V16.396H491.486V14.79C491.486 11.666 493.84 9.994 496.942 9.994C500.044 9.994 502.618 11.666 502.618 14.79V15.67C502.618 18.398 501.518 19.762 499.164 22.292C496.788 24.844 496.106 25.328 496.106 26.406V26.802H502.618V30.322H491.266V26.406C491.266 24.8 491.42 23.59 495.27 20.202C497.624 18.156 497.998 17.078 497.998 15.67ZM503.931 20.576V17.672H518.561V20.576H512.907L512.621 22.16H523.929V27.418H509.915V28.232H524.149V30.652H505.295V25.284H519.309V24.536H505.295V22.16H508.177L508.463 20.576H503.931ZM504.371 13.8C504.371 11.952 505.801 10.434 507.847 10.434H513.479C515.503 10.434 516.977 11.952 516.977 13.8C516.977 15.648 515.503 17.144 513.479 17.144H507.847C505.801 17.144 504.371 15.648 504.371 13.8ZM517.329 15.89V12.48H519.089V10.214H523.929V21.61H519.089V15.89H517.329ZM508.507 13.844C508.507 14.196 508.771 14.504 509.057 14.504H512.335C512.621 14.504 512.885 14.196 512.885 13.844C512.885 13.492 512.621 13.184 512.335 13.184H509.057C508.771 13.184 508.507 13.492 508.507 13.844ZM536.64 21.412V17.892L538.092 17.782C538.752 17.716 539.478 17.21 539.478 16.506V14.57C539.478 13.866 538.906 13.294 538.202 13.294C537.498 13.294 536.926 13.866 536.926 14.57V16.176H532.526V14.79C532.526 11.666 535.1 9.994 538.202 9.994C541.304 9.994 543.878 11.666 543.878 14.79V16.286C543.878 17.958 543.218 18.992 542.162 19.63C543.328 20.268 544.098 21.324 544.098 23.018V26.076C544.098 29.2 541.304 30.872 538.202 30.872C535.1 30.872 532.306 29.2 532.306 26.076V23.678H536.926V26.076C536.926 26.78 537.498 27.352 538.202 27.352C538.906 27.352 539.478 26.78 539.478 26.076V22.798C539.478 22.094 538.686 21.522 537.982 21.522L536.64 21.412ZM551.836 30.432H547.216V15.978H544.972V12.678C546.204 12.678 547.568 11.6 547.568 10.434H551.836V30.432ZM568.651 21.17V10.214H573.601V21.17H568.651ZM554.967 24.096V21.61H573.601V27.22H559.829V28.056H573.931V30.652H554.967V24.888H568.739V24.096H554.967ZM554.043 16.022V15.01C554.043 11.776 556.837 10.214 560.269 10.214C563.679 10.214 566.473 11.776 566.473 15.01V16.022C566.473 19.212 563.679 20.752 560.269 20.752C556.837 20.752 554.043 19.212 554.043 16.022ZM558.795 14.636V16.396C558.795 17.166 559.411 17.716 560.269 17.716C561.083 17.716 561.743 17.166 561.743 16.396V14.636C561.743 13.866 561.083 13.25 560.269 13.25C559.411 13.25 558.795 13.866 558.795 14.636ZM577.363 13.778C577.363 9.796 580.157 9.422 583.413 9.422V12.722C582.291 12.722 581.543 13.052 581.543 14.042V26.758C581.543 27.748 582.291 28.078 583.413 28.078V31.378C580.157 31.378 577.363 31.004 577.363 27.022V13.778ZM599.468 30.652V10.214H604.308V17.628H606.596V21.83H604.308V30.652H599.468ZM595.024 23.216H588.556C586.862 23.216 585.388 21.456 585.388 19.278C585.388 17.078 586.862 15.318 588.556 15.318H595.024C596.718 15.318 598.192 17.078 598.192 19.278C598.192 21.456 596.718 23.216 595.024 23.216ZM584.948 30.652V26.912L589.458 26.626V23.876H594.122V26.34L598.918 26.032V29.772L584.948 30.652ZM585.168 14.768V11.358H589.282V9.774H594.298V11.358H598.368V14.768H585.168ZM589.392 19.278C589.392 19.63 589.634 20.026 589.986 20.026H593.682C594.034 20.026 594.254 19.63 594.254 19.278C594.254 18.86 594.034 18.508 593.682 18.508H589.986C589.634 18.508 589.392 18.86 589.392 19.278ZM612.778 13.778V27.022C612.778 31.004 609.984 31.378 606.728 31.378V28.078C607.85 28.078 608.598 27.748 608.598 26.758V14.042C608.598 13.052 607.85 12.722 606.728 12.722V9.422C609.984 9.422 612.778 9.796 612.778 13.778Z" fill="white"/>
</svg>
