<svg width="285" height="56" viewBox="0 0 285 56" fill="none" xmlns="http://www.w3.org/2000/svg">
<rect width="285" height="56" rx="28" fill="#006FCE"/>
<path d="M20.8806 23.873V20.643H26.8276V19.123H31.1026V20.643H37.0306V23.873H31.1786C31.6916 25.488 34.0856 25.944 37.2206 25.944V29.25C33.0596 29.25 30.4186 28.319 28.9556 26.704C27.4736 28.338 24.8516 29.25 20.6906 29.25V25.944C23.8256 25.944 26.2196 25.488 26.7326 23.873H20.8806ZM20.2156 33.316V29.972H37.6956V33.316H31.1406V37.344H26.7706V33.316H20.2156ZM39.5956 25.146V23.759C39.5956 20.966 41.8756 19.503 44.6686 19.503C47.0626 19.503 49.0956 20.586 49.6086 22.676H52.3256V19.503H56.5056V29.896H52.3256V25.925H49.6656C49.2666 28.205 47.1766 29.364 44.6686 29.364C41.8756 29.364 39.5956 27.939 39.5956 25.146ZM40.2036 33.506V30.371H56.5056V37.249H52.1356V33.506H40.2036ZM43.4146 23.455V25.431C43.4146 26.172 43.9656 26.628 44.7066 26.628C45.4476 26.628 46.0176 26.172 46.0176 25.431V23.455C46.0176 22.714 45.4476 22.239 44.7066 22.239C43.9656 22.239 43.4146 22.714 43.4146 23.455ZM58.7856 26.115V24.31C58.7856 21.118 61.1986 19.503 64.1436 19.503C67.1076 19.503 69.5206 21.118 69.5206 24.31V26.115C69.5206 29.288 67.1076 30.827 64.1436 30.827C61.1986 30.827 58.7856 29.288 58.7856 26.115ZM71.2116 37.154V19.503H75.4866V37.154H71.2116ZM58.2156 36.869V33.449L70.7366 32.689V36.109L58.2156 36.869ZM62.7376 24.082V26.305C62.7376 27.198 63.3646 27.73 64.1436 27.73C64.9606 27.73 65.6066 27.198 65.6066 26.305V24.082C65.6066 23.189 64.9606 22.6 64.1436 22.6C63.3646 22.6 62.7376 23.189 62.7376 24.082ZM83.2919 32.176V24.481C83.2919 21.688 85.5719 19.788 88.3649 19.788C91.1769 19.788 93.4569 21.688 93.4569 24.481V32.176C93.4569 34.969 91.1769 36.869 88.3649 36.869C85.5719 36.869 83.2919 34.969 83.2919 32.176ZM95.4519 37.154V19.503H99.6319V25.906H101.608V29.535H99.6319V37.154H95.4519ZM87.1109 24.253V32.404C87.1109 33.069 87.6429 33.658 88.4029 33.658C89.1629 33.658 89.7139 33.069 89.7139 32.404V24.253C89.7139 23.626 89.1629 22.98 88.4029 22.98C87.6429 22.98 87.1109 23.626 87.1109 24.253ZM102.292 36.584V19.959H106.301V24.025H108.524V19.959H112.457V36.584H108.524V35.9L102.292 36.584ZM114.452 37.154V19.503H118.632V25.906H120.608V29.535H118.632V37.154H114.452ZM106.301 27.236V32.898L108.524 32.67V27.236H106.301ZM132.768 32.385V35.824L121.292 36.584V24.348H131.932V27.483H125.472V32.917L132.768 32.385ZM133.452 37.154V19.503H137.632V25.906H139.608V29.535H137.632V37.154H133.452ZM121.292 23.303V20.073H132.027V23.303H121.292ZM145.988 29.364V19.788H156.134V29.364H145.988ZM162.708 34.038V37.154H146.786V30.732H151.023V34.038H162.708ZM158.148 32.518V19.503H162.328V23.816H164.304V27.255H162.328V32.518H158.148ZM149.997 22.828V26.324H152.201V22.828H149.997ZM164.608 28.661V25.906H182.088V28.661H164.608ZM165.273 31.625V29.611H181.423V34.247H169.339V34.95H181.708V37.154H165.273V32.309H177.319V31.625H165.273ZM181.518 22.676V25.089H165.273V19.503H181.423V21.84H169.453V22.676H181.518ZM196.604 37.154V19.503H200.879V37.154H196.604ZM183.893 23.493V20.073H195.103V22.923C195.103 31.226 190.391 35.71 183.798 36.774V33.145C188.244 32.024 191.151 28.965 191.151 23.493H183.893ZM208.684 32.176V24.481C208.684 21.688 211.097 19.788 214.042 19.788C217.006 19.788 219.438 21.688 219.438 24.481V32.176C219.438 34.969 217.006 36.869 214.042 36.869C211.097 36.869 208.684 34.969 208.684 32.176ZM221.3 37.154V19.503H225.575V37.154H221.3ZM212.731 24.291V32.366C212.731 33.031 213.282 33.658 214.099 33.658C214.916 33.658 215.486 33.031 215.486 32.366V24.291C215.486 23.664 214.916 22.98 214.099 22.98C213.282 22.98 212.731 23.664 212.731 24.291ZM227.684 30.276V19.693H230.99V21.821H232.719V19.693H235.892V23.398H237.317V19.503H240.642V32.594H237.317V26.628H235.892V30.276H227.684ZM245.069 34.038V37.154H228.482V31.226H232.719V34.038H245.069ZM241.383 32.594V19.503H244.784V32.594H241.383ZM230.99 24.937V27.16H232.719V24.937H230.99ZM246.304 36.869V33.525H263.784V36.869H246.304ZM263.309 27.73V30.865H246.969V23.664H263.043V26.647H251.206V27.73H263.309ZM246.969 22.866V19.788H263.119V22.866H246.969Z" fill="#909090"/>
<path d="M20.8806 23.873V20.643H26.8276V19.123H31.1026V20.643H37.0306V23.873H31.1786C31.6916 25.488 34.0856 25.944 37.2206 25.944V29.25C33.0596 29.25 30.4186 28.319 28.9556 26.704C27.4736 28.338 24.8516 29.25 20.6906 29.25V25.944C23.8256 25.944 26.2196 25.488 26.7326 23.873H20.8806ZM20.2156 33.316V29.972H37.6956V33.316H31.1406V37.344H26.7706V33.316H20.2156ZM39.5956 25.146V23.759C39.5956 20.966 41.8756 19.503 44.6686 19.503C47.0626 19.503 49.0956 20.586 49.6086 22.676H52.3256V19.503H56.5056V29.896H52.3256V25.925H49.6656C49.2666 28.205 47.1766 29.364 44.6686 29.364C41.8756 29.364 39.5956 27.939 39.5956 25.146ZM40.2036 33.506V30.371H56.5056V37.249H52.1356V33.506H40.2036ZM43.4146 23.455V25.431C43.4146 26.172 43.9656 26.628 44.7066 26.628C45.4476 26.628 46.0176 26.172 46.0176 25.431V23.455C46.0176 22.714 45.4476 22.239 44.7066 22.239C43.9656 22.239 43.4146 22.714 43.4146 23.455ZM58.7856 26.115V24.31C58.7856 21.118 61.1986 19.503 64.1436 19.503C67.1076 19.503 69.5206 21.118 69.5206 24.31V26.115C69.5206 29.288 67.1076 30.827 64.1436 30.827C61.1986 30.827 58.7856 29.288 58.7856 26.115ZM71.2116 37.154V19.503H75.4866V37.154H71.2116ZM58.2156 36.869V33.449L70.7366 32.689V36.109L58.2156 36.869ZM62.7376 24.082V26.305C62.7376 27.198 63.3646 27.73 64.1436 27.73C64.9606 27.73 65.6066 27.198 65.6066 26.305V24.082C65.6066 23.189 64.9606 22.6 64.1436 22.6C63.3646 22.6 62.7376 23.189 62.7376 24.082ZM83.2919 32.176V24.481C83.2919 21.688 85.5719 19.788 88.3649 19.788C91.1769 19.788 93.4569 21.688 93.4569 24.481V32.176C93.4569 34.969 91.1769 36.869 88.3649 36.869C85.5719 36.869 83.2919 34.969 83.2919 32.176ZM95.4519 37.154V19.503H99.6319V25.906H101.608V29.535H99.6319V37.154H95.4519ZM87.1109 24.253V32.404C87.1109 33.069 87.6429 33.658 88.4029 33.658C89.1629 33.658 89.7139 33.069 89.7139 32.404V24.253C89.7139 23.626 89.1629 22.98 88.4029 22.98C87.6429 22.98 87.1109 23.626 87.1109 24.253ZM102.292 36.584V19.959H106.301V24.025H108.524V19.959H112.457V36.584H108.524V35.9L102.292 36.584ZM114.452 37.154V19.503H118.632V25.906H120.608V29.535H118.632V37.154H114.452ZM106.301 27.236V32.898L108.524 32.67V27.236H106.301ZM132.768 32.385V35.824L121.292 36.584V24.348H131.932V27.483H125.472V32.917L132.768 32.385ZM133.452 37.154V19.503H137.632V25.906H139.608V29.535H137.632V37.154H133.452ZM121.292 23.303V20.073H132.027V23.303H121.292ZM145.988 29.364V19.788H156.134V29.364H145.988ZM162.708 34.038V37.154H146.786V30.732H151.023V34.038H162.708ZM158.148 32.518V19.503H162.328V23.816H164.304V27.255H162.328V32.518H158.148ZM149.997 22.828V26.324H152.201V22.828H149.997ZM164.608 28.661V25.906H182.088V28.661H164.608ZM165.273 31.625V29.611H181.423V34.247H169.339V34.95H181.708V37.154H165.273V32.309H177.319V31.625H165.273ZM181.518 22.676V25.089H165.273V19.503H181.423V21.84H169.453V22.676H181.518ZM196.604 37.154V19.503H200.879V37.154H196.604ZM183.893 23.493V20.073H195.103V22.923C195.103 31.226 190.391 35.71 183.798 36.774V33.145C188.244 32.024 191.151 28.965 191.151 23.493H183.893ZM208.684 32.176V24.481C208.684 21.688 211.097 19.788 214.042 19.788C217.006 19.788 219.438 21.688 219.438 24.481V32.176C219.438 34.969 217.006 36.869 214.042 36.869C211.097 36.869 208.684 34.969 208.684 32.176ZM221.3 37.154V19.503H225.575V37.154H221.3ZM212.731 24.291V32.366C212.731 33.031 213.282 33.658 214.099 33.658C214.916 33.658 215.486 33.031 215.486 32.366V24.291C215.486 23.664 214.916 22.98 214.099 22.98C213.282 22.98 212.731 23.664 212.731 24.291ZM227.684 30.276V19.693H230.99V21.821H232.719V19.693H235.892V23.398H237.317V19.503H240.642V32.594H237.317V26.628H235.892V30.276H227.684ZM245.069 34.038V37.154H228.482V31.226H232.719V34.038H245.069ZM241.383 32.594V19.503H244.784V32.594H241.383ZM230.99 24.937V27.16H232.719V24.937H230.99ZM246.304 36.869V33.525H263.784V36.869H246.304ZM263.309 27.73V30.865H246.969V23.664H263.043V26.647H251.206V27.73H263.309ZM246.969 22.866V19.788H263.119V22.866H246.969Z" fill="white"/>
</svg>
