<svg width="101" height="46" viewBox="0 0 101 46" fill="none" xmlns="http://www.w3.org/2000/svg">
<mask id="path-1-inside-1_572_2012" fill="white">
<path d="M0 0H101V46H0V0Z"/>
</mask>
<path d="M101 45H0V47H101V45Z" fill="white" fill-opacity="0.4" mask="url(#path-1-inside-1_572_2012)"/>
<path d="M96.8661 28.3758V16.0718C96.8661 15.2558 97.5061 14.6318 98.3061 14.6318C99.1061 14.6318 99.7461 15.2558 99.7461 16.0718V28.3758C99.7461 29.2078 99.1061 29.8158 98.3061 29.8158C97.5061 29.8158 96.8661 29.2078 96.8661 28.3758ZM85.5381 27.6878C85.5381 27.1598 85.8261 26.6958 86.2741 26.4718C90.2741 24.4878 92.0181 21.4158 92.0181 17.6718H86.9621C86.3061 17.6718 85.7781 17.1438 85.7781 16.4878C85.7781 15.7998 86.3061 15.2718 86.9621 15.2718H93.7781C94.4021 15.2718 94.8981 15.7678 94.8981 16.3918V17.2718C94.8981 21.5118 93.3461 26.1838 87.5381 28.8718C87.3301 28.9678 87.0741 29.0158 86.8341 29.0158C86.0981 29.0158 85.5381 28.4078 85.5381 27.6878Z" fill="white"/>
<path d="M72.9461 16.9041V17.6561H82.8821C83.4261 17.6561 83.8581 18.0881 83.8581 18.6321C83.8581 19.1761 83.4261 19.6081 82.8821 19.6081H71.0741C70.5781 19.6081 70.0981 19.2241 70.0981 18.6321V15.9281C70.0981 15.3681 70.5461 14.9521 71.0741 14.9521H82.8021C83.3461 14.9521 83.7781 15.3841 83.7781 15.9281C83.7781 16.4721 83.3461 16.9041 82.8021 16.9041H72.9461ZM69.5381 21.4321C69.5381 20.8561 69.9861 20.4081 70.5461 20.4081H83.2341C83.8101 20.4081 84.2581 20.8561 84.2581 21.4321C84.2581 21.9761 83.8101 22.4241 83.2341 22.4241H70.5461C69.9861 22.4241 69.5381 21.9761 69.5381 21.4321ZM82.8661 27.2081H72.9781V27.8001H83.0901C83.6181 27.8001 84.0181 28.2001 84.0181 28.7281C84.0181 29.2561 83.6181 29.6561 83.0901 29.6561H71.0261C70.4981 29.6561 70.0981 29.2561 70.0981 28.7281V26.3761C70.0981 25.9121 70.4661 25.5441 70.9301 25.5441H80.8181V24.9681H70.8981C70.4021 24.9681 70.0181 24.5841 70.0181 24.0881C70.0181 23.5921 70.4021 23.2081 70.8981 23.2081H82.8181C83.3141 23.2081 83.6981 23.5921 83.6981 24.0881V26.3761C83.6981 26.8401 83.3301 27.2081 82.8661 27.2081Z" fill="white"/>
<path d="M61.3144 23.3518H54.9624C54.3544 23.3518 53.8584 22.8558 53.8584 22.2478V16.1358C53.8584 15.5278 54.3544 15.0318 54.9624 15.0318H61.3144C61.9224 15.0318 62.4184 15.5278 62.4184 16.1358V22.2478C62.4184 22.8558 61.9224 23.3518 61.3144 23.3518ZM54.5304 28.2958V25.5278C54.5304 24.7278 55.1704 24.2478 55.9704 24.2478C56.7704 24.2478 57.4104 24.7278 57.4104 25.5278V27.4158H66.6584C67.2824 27.4158 67.7784 27.9118 67.7784 28.5358C67.7784 29.1598 67.2824 29.6558 66.6584 29.6558H55.8904C55.1864 29.6558 54.5304 29.1278 54.5304 28.2958ZM64.4184 24.4878V16.0718C64.4184 15.2558 65.0584 14.6318 65.8584 14.6318C66.6584 14.6318 67.2984 15.2558 67.2984 16.0718V18.7118H68.1624C68.7864 18.7118 69.2824 19.2078 69.2824 19.8318C69.2824 20.4558 68.7864 20.9518 68.1624 20.9518H67.2984V24.4878C67.2984 25.3198 66.6584 25.9278 65.8584 25.9278C65.0584 25.9278 64.4184 25.3198 64.4184 24.4878ZM56.6744 17.2078V21.1758H59.6024V17.2078H56.6744Z" fill="white"/>
<path d="M35.9094 26.6958C37.9094 26.6958 39.9574 26.5358 41.6854 26.1038C41.8134 26.0718 41.9094 26.0558 42.0214 26.0558C42.6774 26.0558 43.2214 26.5998 43.2214 27.2558C43.2214 27.7838 42.8214 28.2798 42.2934 28.3918C39.8774 28.9518 37.5414 29.0158 34.9654 29.0158H34.1654C33.5574 29.0158 33.0614 28.5198 33.0614 27.9118V19.8158C33.0614 19.2078 33.5574 18.7118 34.1654 18.7118H40.8054C41.4454 18.7118 41.9414 19.2078 41.9414 19.8478C41.9414 20.4878 41.4454 20.9838 40.8054 20.9838H35.9094V26.6958ZM43.6214 28.3758V16.0718C43.6214 15.2558 44.2614 14.6318 45.0614 14.6318C45.8614 14.6318 46.5014 15.2558 46.5014 16.0718V20.4238H47.2214C47.9254 20.4238 48.4854 20.9838 48.4854 21.6878C48.4854 22.3918 47.9254 22.9518 47.2214 22.9518H46.5014V28.3758C46.5014 29.2078 45.8614 29.8158 45.0614 29.8158C44.2614 29.8158 43.6214 29.2078 43.6214 28.3758ZM32.9814 16.4398C32.9814 15.7838 33.4934 15.2718 34.1334 15.2718H40.9334C41.5734 15.2718 42.1014 15.7998 42.1014 16.4398C42.1014 17.0638 41.5734 17.5918 40.9334 17.5918H34.1334C33.4934 17.5918 32.9814 17.0798 32.9814 16.4398Z" fill="white"/>
<path d="M24.5175 29.0158H18.1655C17.5575 29.0158 17.0615 28.5198 17.0615 27.9118V16.5358C17.0615 15.7358 17.6855 15.1118 18.4695 15.1118C19.2535 15.1118 19.8775 15.7358 19.8775 16.5358V19.7678H22.8055V16.5358C22.8055 15.7358 23.4295 15.1118 24.2135 15.1118C24.9975 15.1118 25.6215 15.7358 25.6215 16.5358V27.9118C25.6215 28.5198 25.1255 29.0158 24.5175 29.0158ZM27.6215 28.3758V16.0718C27.6215 15.2558 28.2615 14.6318 29.0615 14.6318C29.8615 14.6318 30.5015 15.2558 30.5015 16.0718V20.4878H31.2855C31.9415 20.4878 32.4855 21.0158 32.4855 21.6878C32.4855 22.3598 31.9415 22.8878 31.2855 22.8878H30.5015V28.3758C30.5015 29.2078 29.8615 29.8158 29.0615 29.8158C28.2615 29.8158 27.6215 29.2078 27.6215 28.3758ZM19.8775 26.6798H22.8055V22.1038H19.8775V26.6798Z" fill="white"/>
<path d="M1.06152 25.6238V18.6798C1.06152 16.4718 2.96552 15.0318 5.33352 15.0318C7.70152 15.0318 9.62152 16.4718 9.62152 18.6798V25.6238C9.62152 27.8318 7.70152 29.2558 5.33352 29.2558C2.96552 29.2558 1.06152 27.8318 1.06152 25.6238ZM11.6215 28.3758V16.0718C11.6215 15.2558 12.2615 14.6318 13.0615 14.6318C13.8615 14.6318 14.5015 15.2558 14.5015 16.0718V20.4878H15.2855C15.9415 20.4878 16.4855 21.0158 16.4855 21.6878C16.4855 22.3598 15.9415 22.8878 15.2855 22.8878H14.5015V28.3758C14.5015 29.2078 13.8615 29.8158 13.0615 29.8158C12.2615 29.8158 11.6215 29.2078 11.6215 28.3758ZM3.90952 18.8398V25.4638C3.90952 26.3438 4.56552 26.8878 5.34952 26.8878C6.13352 26.8878 6.77352 26.3438 6.77352 25.4638V18.8398C6.77352 17.9598 6.13352 17.3998 5.34952 17.3998C4.56552 17.3998 3.90952 17.9598 3.90952 18.8398Z" fill="white"/>
</svg>
