<svg width="101" height="68" viewBox="0 0 101 68" fill="none" xmlns="http://www.w3.org/2000/svg">
<mask id="path-1-inside-1_572_1983" fill="white">
<path d="M0 0H101V68H0V0Z"/>
</mask>
<path d="M101 67H0V69H101V67Z" fill="white" fill-opacity="0.4" mask="url(#path-1-inside-1_572_1983)"/>
<path d="M67.1396 49.0714C67.1396 48.4154 67.6997 47.8874 68.3557 47.8874H80.6276C81.3156 47.8874 81.8596 48.4154 81.8596 49.0714C81.8596 49.7114 81.3156 50.2554 80.6276 50.2554H68.3557C67.6997 50.2554 67.1396 49.7114 67.1396 49.0714ZM81.1396 40.5914C81.1396 41.1834 80.6596 41.6954 80.0676 41.6954H70.5797V43.1034H80.3876C80.9956 43.1034 81.4596 43.6154 81.4596 44.2234C81.4596 44.8314 80.9956 45.3434 80.3876 45.3434H68.8036C68.1956 45.3434 67.6996 44.8474 67.6996 44.2394V40.6234C67.6996 40.0154 68.1796 39.5194 68.8036 39.5194H80.0676C80.6596 39.5194 81.1396 39.9994 81.1396 40.5914ZM68.7236 36.1914H80.2757C80.8836 36.1914 81.3797 36.7034 81.3797 37.3114C81.3797 37.9194 80.8836 38.4314 80.2757 38.4314H68.7236C68.1156 38.4314 67.6197 37.9194 67.6197 37.3114C67.6197 36.7034 68.1156 36.1914 68.7236 36.1914Z" fill="#BBD2FF"/>
<path d="M52.5636 42.3998C55.1556 41.8558 57.0597 39.8078 57.0597 37.7918V36.8478C57.0597 36.2078 57.6997 35.6318 58.5317 35.6318C59.3317 35.6318 59.9397 36.2078 59.9397 36.8478V37.7918C59.9397 39.8078 61.8437 41.8558 64.4357 42.3998C65.0437 42.5278 65.4596 43.0238 65.4596 43.6318C65.4596 44.3038 64.9157 44.8798 64.2437 44.8798C64.1317 44.8798 64.0036 44.8638 63.9236 44.8478C61.4276 44.3518 59.5396 43.0878 58.4996 41.2798C57.4596 43.0878 55.5556 44.3518 53.0756 44.8478C52.9956 44.8638 52.8676 44.8798 52.7556 44.8798C52.0836 44.8798 51.5396 44.3038 51.5396 43.6318C51.5396 43.0238 51.9556 42.5278 52.5636 42.3998ZM51.1396 49.0558C51.1396 48.3998 51.6996 47.8558 52.3556 47.8558H64.6276C65.3156 47.8558 65.8596 48.3998 65.8596 49.0558C65.8596 49.6958 65.3156 50.2558 64.6276 50.2558H52.3556C51.6996 50.2558 51.1396 49.6958 51.1396 49.0558Z" fill="#BBD2FF"/>
<path d="M38.2439 41.9038V47.6638C39.2839 47.6638 40.2759 47.4878 41.1559 47.1998C41.2999 47.1518 41.4599 47.1038 41.6359 47.1038C42.2759 47.1038 42.8039 47.6478 42.8039 48.2878C42.8039 48.8318 42.4199 49.2638 41.9079 49.4238C40.3719 49.9038 38.8199 50.0158 37.3639 50.0158H36.5639C35.9559 50.0158 35.4599 49.5198 35.4599 48.9118V40.7358C35.4599 40.1278 35.9559 39.6318 36.5639 39.6318H40.9959C41.6359 39.6318 42.1319 40.1278 42.1319 40.7678C42.1319 41.4078 41.6359 41.9038 40.9959 41.9038H38.2439ZM43.3959 49.3598V45.5678H41.5559C40.9319 45.5678 40.4359 45.0398 40.4359 44.4158C40.4359 43.7918 40.9319 43.2638 41.5559 43.2638H43.3959V37.0878C43.3959 36.3198 44.0199 35.7118 44.7719 35.7118C45.5559 35.7118 46.1639 36.3198 46.1639 37.0878V49.3598C46.1639 50.1438 45.5559 50.7358 44.7719 50.7358C44.0199 50.7358 43.3959 50.1438 43.3959 49.3598ZM46.8679 49.4238V37.0238C46.8679 36.2398 47.4919 35.6318 48.2599 35.6318C49.0439 35.6318 49.6679 36.2398 49.6679 37.0238V49.4238C49.6679 50.2238 49.0439 50.8158 48.2599 50.8158C47.4919 50.8158 46.8679 50.2238 46.8679 49.4238ZM36.5479 36.2718H41.1079C41.7639 36.2718 42.2919 36.7998 42.2919 37.4558C42.2919 38.0958 41.7639 38.6238 41.1079 38.6238H36.5479C35.8919 38.6238 35.3799 38.1118 35.3799 37.4558C35.3799 36.7838 35.8919 36.2718 36.5479 36.2718Z" fill="#BBD2FF"/>
<path d="M19.1396 44.2241C19.1396 43.6001 19.6516 43.0881 20.2596 43.0881H24.3237V41.2161H20.8996C20.2756 41.2161 19.7796 40.7841 19.7796 40.1441C19.7796 39.5201 20.2756 39.0721 20.8996 39.0721H30.3076C30.3236 38.6561 30.3396 38.3201 30.3396 38.1921H20.7396C20.1156 38.1921 19.6196 37.7121 19.6196 37.0721C19.6196 36.4481 20.1156 35.9521 20.7396 35.9521H32.1157C32.7237 35.9521 33.2197 36.4481 33.2197 37.0561C33.2197 37.9361 33.1396 40.6401 32.8356 41.7601C32.6436 42.4641 32.0356 42.6881 31.4436 42.6881C30.6116 42.6881 30.0517 42.1441 30.0517 41.4241C30.0517 41.3761 30.0517 41.2961 30.0676 41.2161H27.2036V43.0881H32.7236C33.3636 43.0881 33.8596 43.6001 33.8596 44.2241C33.8596 44.8161 33.3636 45.3281 32.7236 45.3281H20.2596C19.6516 45.3281 19.1396 44.8161 19.1396 44.2241ZM19.6996 49.2962V47.2321C19.6996 46.4321 20.3396 45.9521 21.1396 45.9521C21.9396 45.9521 22.5796 46.4321 22.5796 47.2321V48.4161H32.4996C33.1236 48.4161 33.6197 48.9121 33.6197 49.5361C33.6197 50.1601 33.1236 50.6561 32.4996 50.6561H21.0596C20.3556 50.6561 19.6996 50.1281 19.6996 49.2962Z" fill="#BBD2FF"/>
<path d="M85.3779 28.8158C85.3779 28.3518 85.5539 27.9518 85.8579 27.6958C87.9699 25.9518 88.9779 23.4878 88.9779 19.2958V17.2318C88.9779 16.4318 89.6179 15.7918 90.4179 15.7918C91.2179 15.7918 91.8579 16.4318 91.8579 17.2318V19.2958C91.8579 23.4878 92.8499 25.8878 94.9619 27.6318C95.2659 27.8878 95.4579 28.2718 95.4579 28.7358C95.4579 29.5038 94.8979 30.0958 94.0979 30.0958C93.7299 30.0958 93.3779 29.9838 93.1379 29.7758C91.8739 28.6878 90.9939 27.5038 90.4179 25.7918C89.8579 27.5358 88.9619 28.7678 87.6979 29.8558C87.4579 30.0638 87.1059 30.1758 86.7379 30.1758C85.9379 30.1758 85.3779 29.5838 85.3779 28.8158ZM97.0259 29.3758V23.3918H94.7859C94.0819 23.3918 93.5219 22.8318 93.5219 22.1278C93.5219 21.4238 94.0819 20.8638 94.7859 20.8638H97.0259V17.0718C97.0259 16.2558 97.6659 15.6318 98.4659 15.6318C99.2659 15.6318 99.9059 16.2558 99.9059 17.0718V29.3758C99.9059 30.2078 99.2659 30.8158 98.4659 30.8158C97.6659 30.8158 97.0259 30.2078 97.0259 29.3758Z" fill="#BBD2FF"/>
<path d="M75.8423 17.3758V22.8798C75.8423 23.5038 75.3463 23.9998 74.7223 23.9998H72.6423V27.6638C73.6663 27.6638 74.6583 27.5038 75.5543 27.1998C75.6983 27.1518 75.8743 27.1038 76.0343 27.1038C76.6743 27.1038 77.2023 27.6478 77.2023 28.2878C77.2023 28.8318 76.8183 29.2638 76.3063 29.4238C74.7703 29.9038 73.2183 30.0158 71.7623 30.0158H70.9623C70.3543 30.0158 69.8583 29.5198 69.8583 28.9118V22.8318C69.8583 22.2238 70.3543 21.7278 70.9623 21.7278H73.0583V18.6238H70.9303C70.2903 18.6238 69.7783 18.0958 69.7783 17.4558C69.7783 16.7998 70.2903 16.2718 70.9303 16.2718H74.7383C75.3463 16.2718 75.8423 16.7678 75.8423 17.3758ZM77.7943 29.3598V23.4558H77.2023C76.4983 23.4558 76.1783 22.9758 76.1783 22.2718C76.1783 21.5678 76.4983 21.0878 77.2023 21.0878H77.7943V17.0878C77.7943 16.3198 78.4183 15.7118 79.1703 15.7118C79.9543 15.7118 80.5623 16.3198 80.5623 17.0878V29.3598C80.5623 30.1438 79.9543 30.7358 79.1703 30.7358C78.4183 30.7358 77.7943 30.1438 77.7943 29.3598ZM81.2663 29.4238V17.0238C81.2663 16.2398 81.8903 15.6318 82.6583 15.6318C83.4423 15.6318 84.0663 16.2398 84.0663 17.0238V29.4238C84.0663 30.2238 83.4423 30.8158 82.6583 30.8158C81.8903 30.8158 81.2663 30.2238 81.2663 29.4238Z" fill="#BBD2FF"/>
<path d="M53.5381 29.0554C53.5381 28.3994 54.0981 27.8554 54.7541 27.8554H67.0261C67.7141 27.8554 68.2581 28.3994 68.2581 29.0554C68.2581 29.6954 67.7141 30.2554 67.0261 30.2554H54.7541C54.0981 30.2554 53.5381 29.6954 53.5381 29.0554ZM66.6581 24.6234H55.2021C54.5941 24.6234 54.0981 24.1274 54.0981 23.5194V17.2954C54.0981 16.6874 54.5941 16.1914 55.2021 16.1914H66.4981C67.1701 16.1914 67.6981 16.7194 67.6981 17.3914C67.6981 18.0634 67.1701 18.5914 66.4981 18.5914H56.9781V22.2234H66.6581C67.3301 22.2234 67.8581 22.7514 67.8581 23.4234C67.8581 24.0954 67.3301 24.6234 66.6581 24.6234Z" fill="#BBD2FF"/>
<path d="M32.7412 29.0714C32.7412 28.4154 33.3012 27.8874 33.9572 27.8874H46.2292C46.9172 27.8874 47.4612 28.4154 47.4612 29.0714C47.4612 29.7114 46.9172 30.2554 46.2292 30.2554H33.9572C33.3012 30.2554 32.7412 29.7114 32.7412 29.0714ZM46.7412 20.5914C46.7412 21.1834 46.2612 21.6954 45.6692 21.6954H36.1812V23.1034H45.9892C46.5972 23.1034 47.0612 23.6154 47.0612 24.2234C47.0612 24.8314 46.5972 25.3434 45.9892 25.3434H34.4052C33.7972 25.3434 33.3012 24.8474 33.3012 24.2394V20.6234C33.3012 20.0154 33.7812 19.5194 34.4052 19.5194H45.6692C46.2612 19.5194 46.7412 19.9994 46.7412 20.5914ZM34.3252 16.1914H45.8772C46.4852 16.1914 46.9812 16.7034 46.9812 17.3114C46.9812 17.9194 46.4852 18.4314 45.8772 18.4314H34.3252C33.7172 18.4314 33.2212 17.9194 33.2212 17.3114C33.2212 16.7034 33.7172 16.1914 34.3252 16.1914Z" fill="#BBD2FF"/>
<path d="M18.1652 22.3998C20.7572 21.8558 22.6612 19.8078 22.6612 17.7918V16.8478C22.6612 16.2078 23.3012 15.6318 24.1332 15.6318C24.9332 15.6318 25.5412 16.2078 25.5412 16.8478V17.7918C25.5412 19.8078 27.4452 21.8558 30.0372 22.3998C30.6452 22.5278 31.0612 23.0238 31.0612 23.6318C31.0612 24.3038 30.5172 24.8798 29.8452 24.8798C29.7332 24.8798 29.6052 24.8638 29.5252 24.8478C27.0292 24.3518 25.1412 23.0878 24.1012 21.2798C23.0612 23.0878 21.1572 24.3518 18.6772 24.8478C18.5972 24.8638 18.4692 24.8798 18.3572 24.8798C17.6852 24.8798 17.1412 24.3038 17.1412 23.6318C17.1412 23.0238 17.5572 22.5278 18.1652 22.3998ZM16.7412 29.0558C16.7412 28.3998 17.3012 27.8558 17.9572 27.8558H30.2292C30.9172 27.8558 31.4612 28.3998 31.4612 29.0558C31.4612 29.6958 30.9172 30.2558 30.2292 30.2558H17.9572C17.3012 30.2558 16.7412 29.6958 16.7412 29.0558Z" fill="#BBD2FF"/>
<path d="M8.05352 28.9118C8.05352 29.5198 7.55752 30.0158 6.94952 30.0158H6.85352H2.16552C1.55752 30.0158 1.06152 29.5198 1.06152 28.9118V28.8158V17.2798C1.06152 16.5278 1.70152 15.9518 2.43752 15.9518C3.15752 15.9518 3.81352 16.5278 3.81352 17.2798V20.7998H5.30152V17.2798C5.30152 16.5278 5.94152 15.9518 6.67752 15.9518C7.39752 15.9518 8.05352 16.5278 8.05352 17.2798V21.5038H9.02952V17.0878C9.02952 16.3198 9.65352 15.7118 10.4055 15.7118C11.1895 15.7118 11.7975 16.3198 11.7975 17.0878V29.3598C11.7975 30.1438 11.1895 30.7358 10.4055 30.7358C9.65352 30.7358 9.02952 30.1438 9.02952 29.3598V23.8718H8.05352V28.9118ZM12.4695 29.4238V17.0238C12.4695 16.2398 13.0935 15.6318 13.8615 15.6318C14.6455 15.6318 15.2695 16.2398 15.2695 17.0238V29.4238C15.2695 30.2238 14.6455 30.8158 13.8615 30.8158C13.0935 30.8158 12.4695 30.2238 12.4695 29.4238ZM3.81352 23.1038V27.6798H5.30152V23.1038H3.81352Z" fill="#BBD2FF"/>
</svg>
