<svg width="101" height="46" viewBox="0 0 101 46" fill="none" xmlns="http://www.w3.org/2000/svg">
<path d="M88.3864 29.6558H81.4264C79.7464 29.6558 78.3704 28.3438 78.3704 26.6638C78.3704 24.9678 79.7464 23.6558 81.4264 23.6558H88.3864C90.0824 23.6558 91.4584 24.9678 91.4584 26.6638C91.4584 28.3438 90.0824 29.6558 88.3864 29.6558ZM77.8584 21.3838V16.1358C77.8584 15.5278 78.3544 15.0318 78.9624 15.0318H85.4744C86.0824 15.0318 86.5784 15.5278 86.5784 16.1358C86.5784 16.7438 86.0824 17.2398 85.4744 17.2398H80.7064V20.2798C82.8504 20.2798 84.8664 20.1038 86.6264 19.6718C86.6904 19.6558 86.8184 19.6398 86.9144 19.6398C87.5224 19.6398 88.0184 20.1358 88.0184 20.7438C88.0184 21.2558 87.6504 21.6878 87.1864 21.7998C84.9304 22.3438 82.6424 22.4878 79.7624 22.4878H78.9624C78.3544 22.4878 77.8584 21.9918 77.8584 21.3838ZM88.4184 21.9758V16.0718C88.4184 15.2558 89.0584 14.6318 89.8584 14.6318C90.6584 14.6318 91.2984 15.2558 91.2984 16.0718V17.7518H92.1624C92.7864 17.7518 93.2824 18.2478 93.2824 18.8718C93.2824 19.4958 92.7864 19.9918 92.1624 19.9918H91.2984V21.9758C91.2984 22.8078 90.6584 23.4158 89.8584 23.4158C89.0584 23.4158 88.4184 22.8078 88.4184 21.9758ZM81.2184 26.6638C81.2184 27.1438 81.5864 27.4798 82.0664 27.4798H87.7464C88.2264 27.4798 88.6104 27.1438 88.6104 26.6638C88.6104 26.1838 88.2264 25.8318 87.7464 25.8318H82.0664C81.5864 25.8318 81.2184 26.1838 81.2184 26.6638Z" fill="#BBD2FF"/>
<path d="M61.6982 22.8078C61.6982 22.1678 62.0342 21.7678 62.4662 21.5918C63.9222 20.9998 65.0422 19.4798 65.0422 17.7038V17.3038H62.8982C62.2742 17.3038 61.7782 16.8398 61.7782 16.1838C61.7782 15.4958 62.2742 15.0318 62.8982 15.0318H70.0662C70.7542 15.0318 71.2182 15.4958 71.2182 16.1838C71.2182 16.8398 70.7542 17.3038 70.0662 17.3038H67.9222V17.7038C67.9222 19.4158 69.0422 20.8398 70.4982 21.4318C70.9302 21.6078 71.2662 22.0078 71.2662 22.6478C71.2662 23.3678 70.7382 23.9278 69.9862 23.9278C69.7782 23.9278 69.5542 23.8798 69.3622 23.7998C68.2582 23.3518 67.2022 22.5358 66.4982 21.2878C65.8102 22.6158 64.7222 23.4958 63.6022 23.9598C63.4102 24.0398 63.1862 24.0878 62.9782 24.0878C62.2262 24.0878 61.6982 23.5278 61.6982 22.8078ZM73.0262 24.8078V20.4238H71.1222C70.4982 20.4238 70.0022 19.9278 70.0022 19.3038C70.0022 18.6798 70.4982 18.1838 71.1222 18.1838H73.0262V16.0718C73.0262 15.2558 73.6662 14.6318 74.4662 14.6318C75.2662 14.6318 75.9062 15.2558 75.9062 16.0718V24.8078C75.9062 25.6398 75.2662 26.2478 74.4662 26.2478C73.6662 26.2478 73.0262 25.6398 73.0262 24.8078ZM62.5302 28.2958V25.9278C62.5302 25.1278 63.1702 24.6478 63.9702 24.6478C64.7702 24.6478 65.4102 25.1278 65.4102 25.9278V27.4158H75.1062C75.7302 27.4158 76.2262 27.9118 76.2262 28.5358C76.2262 29.1598 75.7302 29.6558 75.1062 29.6558H63.8902C63.1862 29.6558 62.5302 29.1278 62.5302 28.2958Z" fill="#BBD2FF"/>
<path d="M41.3652 20.9198V18.4718C41.3652 16.1038 43.4932 14.7918 46.0212 14.7918C48.5492 14.7918 50.7412 16.1038 50.7412 18.4718V20.9198C50.7412 23.2878 48.5652 24.5838 46.0372 24.5838C43.5092 24.5838 41.3652 23.2878 41.3652 20.9198ZM44.1812 18.5038V20.8878C44.1812 21.7358 44.9652 22.2478 46.0372 22.2478C47.1092 22.2478 47.9252 21.7358 47.9252 20.8878V18.5038C47.9252 17.6558 47.1092 17.1118 46.0372 17.1118C44.9652 17.1118 44.1812 17.6558 44.1812 18.5038ZM41.9412 29.0958C41.2692 29.0958 40.7412 28.5678 40.7412 27.8958C40.7412 27.2238 41.2692 26.6958 41.9412 26.6958C44.8532 26.6958 47.7812 26.5998 50.2452 26.1838C50.3412 26.1678 50.4052 26.1518 50.4852 26.1518C51.1572 26.1518 51.6852 26.6798 51.6852 27.3518C51.6852 27.9758 51.2852 28.4238 50.6292 28.5358C48.1972 28.9518 45.0452 29.0958 41.9412 29.0958ZM52.0692 28.3758V16.0718C52.0692 15.2558 52.7092 14.6318 53.5092 14.6318C54.3092 14.6318 54.9492 15.2558 54.9492 16.0718V28.3758C54.9492 29.2078 54.3092 29.8158 53.5092 29.8158C52.7092 29.8158 52.0692 29.2078 52.0692 28.3758Z" fill="#BBD2FF"/>
<path d="M25.0615 26.2798V18.0078C25.0615 16.1038 26.7255 15.0318 28.6295 15.0318C30.5335 15.0318 32.0535 16.1038 32.0535 18.0078V18.3438H33.0295V16.0878C33.0295 15.3198 33.6535 14.7118 34.4055 14.7118C35.1895 14.7118 35.7975 15.3198 35.7975 16.0878V28.3598C35.7975 29.1438 35.1895 29.7358 34.4055 29.7358C33.6535 29.7358 33.0295 29.1438 33.0295 28.3598V25.7038H32.0535V26.2798C32.0535 28.1838 30.5335 29.2558 28.6295 29.2558C26.7255 29.2558 25.0615 28.1838 25.0615 26.2798ZM36.4695 28.4238V16.0238C36.4695 15.2398 37.0935 14.6318 37.8615 14.6318C38.6455 14.6318 39.2695 15.2398 39.2695 16.0238V28.4238C39.2695 29.2238 38.6455 29.8158 37.8615 29.8158C37.0935 29.8158 36.4695 29.2238 36.4695 28.4238ZM27.8135 18.0558V26.2318C27.8135 26.6958 28.1655 27.0478 28.6295 27.0478C29.0935 27.0478 29.4455 26.6958 29.4455 26.2318V18.0558C29.4455 17.5918 29.0935 17.2398 28.6295 17.2398C28.1655 17.2398 27.8135 17.5918 27.8135 18.0558ZM32.0535 20.5838V23.4638H33.0295V20.5838H32.0535Z" fill="#BBD2FF"/>
<path d="M16.5175 22.4878H10.1655C9.55752 22.4878 9.06152 21.9918 9.06152 21.3838V16.1358C9.06152 15.5278 9.55752 15.0318 10.1655 15.0318H16.5175C17.1255 15.0318 17.6215 15.5278 17.6215 16.1358V16.2158H20.2295V16.0718C20.2295 15.2558 20.8695 14.6318 21.6695 14.6318C22.4695 14.6318 23.1095 15.2558 23.1095 16.0718V21.9758C23.1095 22.8078 22.4695 23.4158 21.6695 23.4158C20.8695 23.4158 20.2295 22.8078 20.2295 21.9758V21.3358H17.6215V21.3838C17.6215 21.9918 17.1255 22.4878 16.5175 22.4878ZM12.6295 29.6558C10.9495 29.6558 9.57352 28.3438 9.57352 26.6638C9.57352 24.9678 10.9495 23.6558 12.6295 23.6558H20.1975C21.8935 23.6558 23.2695 24.9678 23.2695 26.6638C23.2695 28.3438 21.8935 29.6558 20.1975 29.6558H12.6295ZM12.4215 26.6638C12.4215 27.1438 12.7895 27.4798 13.2695 27.4798H19.5575C20.0375 27.4798 20.4215 27.1438 20.4215 26.6638C20.4215 26.1838 20.0375 25.8318 19.5575 25.8318H13.2695C12.7895 25.8318 12.4215 26.1838 12.4215 26.6638ZM11.8775 17.2078V20.3118H14.8055V17.2078H11.8775ZM17.6215 18.3118V19.2398H20.2295V18.3118H17.6215Z" fill="#BBD2FF"/>
</svg>
