<svg width="89" height="25" viewBox="0 0 89 25" fill="none" xmlns="http://www.w3.org/2000/svg">
<path d="M44.7396 11.3644H36.5599V9.44868H44.7396V7.31623H36.5599V5.59986H44.7396V3.48474H33.658V13.4795H44.7396V11.3644Z" fill="white"/>
<path d="M79.9565 7.43758L86.8214 13.4795H89.0001V3.48474H86.1077V9.5267L79.2427 3.48474H77.0546V13.4795H79.9565V7.43758Z" fill="white"/>
<path d="M73.9366 3.48474H61.9816V13.4795H73.9366V3.48474ZM71.0347 11.3471H64.8835V5.58253H71.0347V11.3471Z" fill="white"/>
<path d="M21.4869 7.43758L28.3519 13.4795H30.54V3.48474H27.6475V9.5267L20.7826 3.48474H18.5851V13.4795H21.4869V7.43758Z" fill="white"/>
<path d="M53.3701 10.3935L56.3377 13.4795H60.0003L55.2014 8.48648L60.0097 3.48474H56.3377L53.3701 6.5794L50.3931 3.48474H46.7306L51.5388 8.48648L46.74 13.4795H50.4025L53.3701 10.3935Z" fill="white"/>
<path d="M0 13.5228V21.9313L12.0864 15.9934L0 13.5228Z" fill="#0098D8"/>
<path d="M12.0864 0L0 5.93793V13.5229L12.0864 15.9934V0Z" fill="#00365C"/>
<path d="M12.0864 15.9935L0 21.9315L14.9977 25.0001L27.0841 19.0622L12.0864 15.9935Z" fill="#CAD400"/>
</svg>
