<svg width="100" height="28" viewBox="0 0 100 28" fill="none" xmlns="http://www.w3.org/2000/svg">
<path d="M0 14C0 6.26801 6.26801 0 14 0H86C93.732 0 100 6.26801 100 14C100 21.732 93.732 28 86 28H14C6.26801 28 0 21.732 0 14Z" fill="black"/>
<g clip-path="url(#clip0_2703_5760)">
<path d="M19.9701 19.1728L12.6028 14L19.9701 8.82727L20.6268 9.90939L14.8005 14L20.6268 18.0907L19.9701 19.1728Z" fill="#B4B4B4"/>
<path d="M20.2983 11.0905C21.1826 11.0905 21.8994 10.3194 21.8994 9.36824C21.8994 8.41707 21.1826 7.646 20.2983 7.646C19.4141 7.646 18.6973 8.41707 18.6973 9.36824C18.6973 10.3194 19.4141 11.0905 20.2983 11.0905Z" fill="#B4B4B4"/>
<path d="M20.2984 11.7366C19.0843 11.7366 18.0968 10.6741 18.0968 9.3684C18.0968 8.06268 19.0843 7 20.2984 7C21.5124 7 22.4999 8.06247 22.4999 9.36819C22.4999 10.6739 21.5122 11.7364 20.2984 11.7364V11.7366ZM20.2984 8.29211C19.7467 8.29211 19.298 8.77495 19.298 9.36819C19.298 9.96142 19.7469 10.4443 20.2984 10.4443C20.8499 10.4443 21.2987 9.96142 21.2987 9.36819C21.2987 8.77495 20.8499 8.29211 20.2984 8.29211Z" fill="#B4B4B4"/>
<path d="M20.2983 20.3539C21.1826 20.3539 21.8994 19.5828 21.8994 18.6317C21.8994 17.6805 21.1826 16.9094 20.2983 16.9094C19.4141 16.9094 18.6973 17.6805 18.6973 18.6317C18.6973 19.5828 19.4141 20.3539 20.2983 20.3539Z" fill="#B4B4B4"/>
<path d="M20.2984 21C19.0843 21 18.0968 19.9376 18.0968 18.6319C18.0968 17.3261 19.0845 16.2637 20.2984 16.2637C21.5122 16.2637 22.4999 17.3261 22.4999 18.6319C22.4999 19.9376 21.5122 21 20.2984 21ZM20.2984 17.5556C19.7467 17.5556 19.298 18.0384 19.298 18.6316C19.298 19.2249 19.7469 19.7077 20.2984 19.7077C20.8499 19.7077 21.2987 19.2249 21.2987 18.6316C21.2987 18.0384 20.8499 17.5556 20.2984 17.5556Z" fill="#B4B4B4"/>
<path d="M15.2822 14.2765C15.4238 13.3376 14.8311 12.4529 13.9583 12.3005C13.0855 12.1481 12.2631 12.7857 12.1214 13.7246C11.9797 14.6634 12.5724 15.5481 13.4452 15.7005C14.3181 15.8529 15.1405 15.2153 15.2822 14.2765Z" fill="#B4B4B4"/>
<path d="M13.7016 16.3682C12.4875 16.3682 11.5 15.3057 11.5 14C11.5 12.6943 12.4877 11.6318 13.7016 11.6318C14.9154 11.6318 15.9031 12.6943 15.9031 14C15.9031 15.3057 14.9154 16.3682 13.7016 16.3682ZM13.7016 12.9237C13.1499 12.9237 12.7012 13.4066 12.7012 13.9998C12.7012 14.593 13.1501 15.0759 13.7016 15.0759C14.2531 15.0759 14.7019 14.593 14.7019 13.9998C14.7019 13.4066 14.2531 12.9237 13.7016 12.9237Z" fill="#B4B4B4"/>
</g>
<path d="M33.34 17.916C33.34 16.586 34.418 15.508 35.762 15.508H43.21C44.554 15.508 45.66 16.586 45.66 17.916C45.66 19.26 44.554 20.324 43.21 20.324H35.762C34.418 20.324 33.34 19.26 33.34 17.916ZM33.06 13.632C33.06 13.086 33.508 12.638 34.04 12.638H37.596V11.336C37.596 10.622 38.156 10.23 38.87 10.23C39.556 10.23 40.116 10.622 40.116 11.336V12.638H44.946C45.506 12.638 45.94 13.086 45.94 13.632C45.94 14.15 45.506 14.598 44.946 14.598H34.04C33.508 14.598 33.06 14.15 33.06 13.632ZM42.608 11.056C42.608 10.972 42.622 10.846 42.65 10.748C42.776 10.314 42.86 9.698 42.86 9.418H34.46C33.914 9.418 33.48 8.998 33.48 8.438C33.48 7.892 33.914 7.458 34.46 7.458H44.414C44.946 7.458 45.38 7.892 45.38 8.424C45.38 9.194 45.31 10.37 45.044 11.35C44.876 11.966 44.344 12.218 43.826 12.218C43.098 12.218 42.608 11.686 42.608 11.056ZM35.832 17.916C35.832 18.154 36 18.392 36.308 18.392H42.706C43.014 18.392 43.168 18.154 43.168 17.916C43.168 17.678 43.014 17.44 42.706 17.44H36.308C36 17.44 35.832 17.678 35.832 17.916ZM47.41 10.552C47.41 8.886 48.698 7.528 50.434 7.528H56.566C58.302 7.528 59.59 8.886 59.59 10.552C59.59 12.218 58.302 13.576 56.566 13.576H50.434C48.698 13.576 47.41 12.218 47.41 10.552ZM47.06 15.802C47.06 15.228 47.55 14.752 48.124 14.752H58.862C59.464 14.752 59.94 15.228 59.94 15.802C59.94 16.362 59.464 16.852 58.862 16.852H57.602V19.204C57.602 19.918 57.056 20.464 56.342 20.464C55.628 20.464 55.082 19.918 55.082 19.204V16.852H52.296C52.184 17.86 51.946 18.77 51.498 19.694C51.232 20.24 50.84 20.534 50.308 20.534C49.44 20.534 48.768 19.694 49.09 18.91C49.384 18.182 49.58 17.552 49.706 16.852H48.124C47.55 16.852 47.06 16.362 47.06 15.802ZM49.902 10.552C49.902 11.154 50.322 11.504 50.924 11.504H56.076C56.678 11.504 57.098 11.154 57.098 10.552C57.098 9.95 56.678 9.6 56.076 9.6H50.924C50.322 9.6 49.902 9.95 49.902 10.552ZM61.41 16.698V14.668C61.41 12.596 63.146 11.378 65.218 11.378C67.29 11.378 69.04 12.596 69.04 14.668V16.698C69.04 18.77 67.29 19.974 65.218 19.974C63.146 19.974 61.41 18.77 61.41 16.698ZM70.58 19.204V8.438C70.58 7.724 71.14 7.178 71.84 7.178C72.54 7.178 73.1 7.724 73.1 8.438V12.302H73.786C74.36 12.302 74.836 12.764 74.836 13.352C74.836 13.94 74.36 14.402 73.786 14.402H73.1V19.204C73.1 19.932 72.54 20.464 71.84 20.464C71.14 20.464 70.58 19.932 70.58 19.204ZM61.06 9.698C61.06 9.124 61.48 8.648 62.096 8.648H63.958V8.228C63.958 7.514 64.518 7.038 65.218 7.038C65.918 7.038 66.478 7.514 66.478 8.228V8.648H68.34C68.928 8.648 69.39 9.11 69.39 9.698C69.39 10.286 68.928 10.748 68.34 10.748H62.096C61.48 10.748 61.06 10.286 61.06 9.698ZM63.902 14.696V16.67C63.902 17.412 64.476 17.902 65.232 17.902C65.988 17.902 66.548 17.412 66.548 16.67V14.696C66.548 13.954 65.988 13.45 65.232 13.45C64.476 13.45 63.902 13.954 63.902 14.696ZM84.972 19.204V8.438C84.972 7.724 85.532 7.178 86.232 7.178C86.932 7.178 87.492 7.724 87.492 8.438V19.204C87.492 19.932 86.932 20.464 86.232 20.464C85.532 20.464 84.972 19.932 84.972 19.204ZM75.06 18.602C75.06 18.14 75.312 17.734 75.704 17.538C79.204 15.802 80.73 13.114 80.73 9.838H76.306C75.732 9.838 75.27 9.376 75.27 8.802C75.27 8.2 75.732 7.738 76.306 7.738H82.27C82.816 7.738 83.25 8.172 83.25 8.718V9.488C83.25 13.198 81.892 17.286 76.81 19.638C76.628 19.722 76.404 19.764 76.194 19.764C75.55 19.764 75.06 19.232 75.06 18.602Z" fill="white"/>
<defs>
<clipPath id="clip0_2703_5760">
<rect width="11" height="14" fill="white" transform="translate(11.5 7)"/>
</clipPath>
</defs>
</svg>
